<?xml version="1.0" encoding="UTF-8"?>
<svg version="1.1" xmlns="http://www.w3.org/2000/svg" width="1024" height="1024">
<path d="M0 0 C337.92 0 675.84 0 1024 0 C1024 337.92 1024 675.84 1024 1024 C686.08 1024 348.16 1024 0 1024 C0 686.08 0 348.16 0 0 Z " fill="#FBFBFB" transform="translate(0,0)"/>
<path d="M0 0 C0.98737656 0.00142502 1.97475311 0.00285004 2.99205017 0.00431824 C4.10983353 0.00124161 5.22761688 -0.00183502 6.37927246 -0.00500488 C8.19648048 0.00577339 8.19648048 0.00577339 10.05039978 0.01676941 C11.28817673 0.01722763 12.52595367 0.01768585 13.80123901 0.01815796 C17.093824 0.02195956 20.38621712 0.03497992 23.67875671 0.05162048 C27.03376 0.06507651 30.38872983 0.06189632 33.74375916 0.06169128 C36.2834747 0.06660648 38.82318868 0.07243481 41.36289978 0.07926941 C42.57639603 0.08038223 43.78989227 0.08149506 45.04016113 0.0826416 C46.71210793 0.09221138 46.71210793 0.09221138 48.41783142 0.10197449 C49.89770287 0.10769218 49.89770287 0.10769218 51.4074707 0.11352539 C53.64024353 0.24723816 53.64024353 0.24723816 54.64024353 1.24723816 C54.72799958 3.39282643 54.74719572 5.54128237 54.73789978 7.68864441 C54.73467712 8.99382019 54.73145447 10.29899597 54.72813416 11.64372253 C54.71977754 13.03239506 54.71131258 14.42106693 54.70274353 15.80973816 C54.69773019 17.20231472 54.693167 18.59489297 54.68907166 19.98747253 C54.67723787 23.40743686 54.66075233 26.8273166 54.64024353 30.24723816 C55.91125916 30.14540222 57.18227478 30.04356628 58.49180603 29.93864441 C59.20675232 29.88136169 59.92169861 29.82407898 60.65830994 29.76506042 C63.05595856 29.3537488 63.05595856 29.3537488 65.01524353 26.18473816 C67.64024353 23.24723816 67.64024353 23.24723816 69.99180603 22.67692566 C74.67258652 22.46981148 76.92365645 22.69151757 80.70274353 25.62223816 C83.53048765 29.45337536 84.10032313 31.46241037 83.64024353 36.24723816 C81.99001344 39.31195117 80.58416753 41.55502723 77.76524353 43.62223816 C74.78507907 44.49875712 72.74185727 44.68146408 69.64024353 44.24723816 C66.21259029 42.17951231 63.93314941 40.1259558 62.64024353 36.24723816 C58.68024353 35.75223816 58.68024353 35.75223816 54.64024353 35.24723816 C54.64024353 45.47723816 54.64024353 55.70723816 54.64024353 66.24723816 C57.28024353 65.91723816 59.92024353 65.58723816 62.64024353 65.24723816 C63.81586853 63.73130066 63.81586853 63.73130066 65.01524353 62.18473816 C67.64024353 59.24723816 67.64024353 59.24723816 69.99180603 58.67692566 C74.67258652 58.46981148 76.92365645 58.69151757 80.70274353 61.62223816 C83.51737555 65.43561057 84.19068977 67.47670406 83.64024353 72.24723816 C81.82714212 75.1766147 79.76728454 77.68371765 76.64024353 79.24723816 C69.57836728 79.82608047 69.57836728 79.82608047 65.70274353 77.43473816 C63.64024353 75.24723816 63.64024353 75.24723816 62.64024353 72.24723816 C58.68024353 71.75223816 58.68024353 71.75223816 54.64024353 71.24723816 C54.64024353 82.13723816 54.64024353 93.02723816 54.64024353 104.24723816 C57.28024353 104.24723816 59.92024353 104.24723816 62.64024353 104.24723816 C63.01149353 103.10255066 63.01149353 103.10255066 63.39024353 101.93473816 C64.83082462 98.83748882 65.59046961 97.77212512 68.64024353 96.24723816 C75.18569808 95.40266338 75.18569808 95.40266338 78.45664978 97.30192566 C80.63213564 99.07376715 82.37727908 100.72130925 83.64024353 103.24723816 C83.6825167 107.62673904 83.42712152 111.19806751 80.76524353 114.74723816 C76.82821989 117.52631367 73.34941261 117.65320101 68.64024353 117.24723816 C65.25084797 115.11044531 63.91441796 114.06976146 62.64024353 110.24723816 C58.68024353 109.75223816 58.68024353 109.75223816 54.64024353 109.24723816 C54.64809875 110.60256653 54.64809875 110.60256653 54.65611267 111.98527527 C54.67312039 115.32675305 54.68567686 118.66818508 54.69517517 122.00968933 C54.70021454 123.45793888 54.70704606 124.90618333 54.71568298 126.35441589 C54.727766 128.43198404 54.73347564 130.50948513 54.73789978 132.58708191 C54.745755 134.46448059 54.745755 134.46448059 54.75376892 136.37980652 C54.64024353 139.24723816 54.64024353 139.24723816 53.64024353 140.24723816 C51.90188062 140.35134249 50.15929576 140.38577343 48.41783142 140.39250183 C47.30320023 140.39888168 46.18856903 140.40526154 45.04016113 140.41183472 C43.21991676 140.41350395 43.21991676 140.41350395 41.36289978 140.41520691 C39.50766945 140.42019951 39.50766945 140.42019951 37.61495972 140.42529297 C34.99293898 140.43036745 32.37091175 140.43270113 29.74888611 140.43254089 C27.05318011 140.43245945 24.35764334 140.43942473 21.66197205 140.45304871 C17.79139455 140.47129162 13.92101587 140.47627402 10.05039978 140.47770691 C8.23319176 140.48848518 8.23319176 140.48848518 6.37927246 140.4994812 C5.26148911 140.49640457 4.14370575 140.49332794 2.99205017 140.49015808 C2.00467361 140.4915831 1.01729706 140.49300812 0 140.49447632 C-2.35975647 140.24723816 -2.35975647 140.24723816 -4.35975647 138.24723816 C-4.59925842 136.08000183 -4.59925842 136.08000183 -4.59803772 133.41520691 C-4.62220764 131.96984558 -4.62220764 131.96984558 -4.64686584 130.49528503 C-4.66369518 128.46670232 -4.66903908 126.43798948 -4.66249084 124.40934753 C-4.75520591 119.92014366 -4.88546581 117.03377018 -7.23475647 113.13786316 C-14.16609103 108.94440575 -22.51874387 109.37779874 -30.35778809 110.35574341 C-34.75489579 111.66155278 -36.41336149 114.08530727 -39.07829285 117.67849731 C-43.84451369 124.08797013 -48.88237588 129.21348403 -56.99387264 130.66934872 C-65.84165698 131.82257472 -74.7569362 131.54109061 -83.65162659 131.24095154 C-86.78190907 131.16553192 -89.90644393 131.20638313 -93.03702736 131.24756527 C-96.0770813 131.27521001 -99.1137095 131.23840925 -102.15325546 131.18153572 C-103.59227574 131.16047258 -105.03167225 131.15685379 -106.47076797 131.17190361 C-111.06664083 131.19379057 -115.06306191 130.92746887 -119.35975647 129.24723816 C-123.01825847 125.29320616 -125.09253172 121.14460647 -127.35975647 116.24723816 C-128.13335487 114.89819498 -128.92168593 113.55726145 -129.73670959 112.23283386 C-133.1274621 106.33944518 -133.1274621 106.33944518 -134.79920959 103.41349792 C-135.88244528 101.52007974 -136.97259362 99.63074305 -138.06288147 97.74137878 C-138.75600823 96.53133191 -139.44873287 95.32105458 -140.14100647 94.11051941 C-140.760401 93.03068787 -141.37979553 91.95085632 -142.01795959 90.83830261 C-143.35975647 88.24723816 -143.35975647 88.24723816 -143.35975647 86.24723816 C-170.41975647 86.24723816 -197.47975647 86.24723816 -225.35975647 86.24723816 C-226.01975647 87.56723816 -226.67975647 88.88723816 -227.35975647 90.24723816 C-229.05504995 92.21524054 -230.7637988 94.11351898 -232.54725647 95.99723816 C-233.54016901 97.06166646 -234.53235567 98.12677233 -235.52381897 99.19255066 C-236.24940002 99.97033875 -236.24940002 99.97033875 -236.98963928 100.76383972 C-239.3925591 103.36543288 -241.70654781 106.04278607 -244.01991272 108.72380066 C-245.08863551 109.93896651 -246.21546707 111.10294876 -247.35975647 112.24723816 C-247.65875695 114.70628168 -247.65875695 114.70628168 -247.6002655 117.61286926 C-247.60301483 118.75152939 -247.60576416 119.89018951 -247.6085968 121.06335449 C-247.59781097 122.94609322 -247.59781097 122.94609322 -247.58680725 124.86686707 C-247.5870993 126.18389114 -247.58739136 127.50091522 -247.58769226 128.85784912 C-247.5882675 132.47543812 -247.57648571 136.09289524 -247.56254435 139.71045351 C-247.55006533 143.48877073 -247.54886873 147.26709077 -247.54649353 151.04542542 C-247.54027042 158.20295505 -247.5238484 165.36042379 -247.50379455 172.51792657 C-247.48146136 180.66533054 -247.47044862 188.81273737 -247.46040368 196.96016431 C-247.43948286 213.72255794 -247.4042908 230.48489029 -247.35975647 247.24723816 C-244.01526962 249.16159778 -240.67022656 251.07498352 -237.3250885 252.98820496 C-236.38587051 253.52582207 -235.44665253 254.06343918 -234.47897339 254.61734772 C-227.1020233 258.83557784 -219.68630385 262.97454843 -212.23475647 267.05973816 C-209.76165354 268.4196038 -207.28926898 269.78077386 -204.81678772 271.14176941 C-203.89212959 271.65044052 -203.89212959 271.65044052 -202.9487915 272.16938782 C-196.26497822 275.84705821 -189.59219645 279.54447854 -182.92225647 283.24723816 C-181.86441956 283.8335199 -180.80658264 284.41980164 -179.71669006 285.02384949 C-171.89291153 289.3690936 -164.13167213 293.80614349 -156.35975647 298.24723816 C-156.35975647 262.27723816 -156.35975647 226.30723816 -156.35975647 189.24723816 C-167.24975647 189.24723816 -178.13975647 189.24723816 -189.35975647 189.24723816 C-189.35975647 181.65723816 -189.35975647 174.06723816 -189.35975647 166.24723816 C-170.87975647 166.24723816 -152.39975647 166.24723816 -133.35975647 166.24723816 C-133.35975647 222.67723816 -133.35975647 279.10723816 -133.35975647 337.24723816 C-136.88112456 335.83869092 -139.98826506 334.45438329 -143.28944397 332.66520691 C-144.71099792 331.89599915 -144.71099792 331.89599915 -146.16127014 331.11125183 C-147.17552063 330.55800232 -148.18977112 330.00475281 -149.23475647 329.43473816 C-150.30121399 328.85506287 -151.36767151 328.27538757 -152.46644592 327.67814636 C-160.47620069 323.30977978 -168.42830759 318.84531258 -176.35926819 314.33586121 C-184.15735028 309.90798016 -192.00199525 305.56786408 -199.85975647 301.24723816 C-208.66263243 296.40693658 -217.43938874 291.52569454 -226.17225647 286.55973816 C-236.86355822 280.48277582 -247.66406427 274.61658758 -258.49989319 268.80192566 C-261.02070403 267.43155487 -263.53090515 266.04441496 -266.03849792 264.65007019 C-266.84800463 264.20003632 -267.65751133 263.75000244 -268.49154854 263.28633118 C-269.10805716 262.94343048 -269.72456577 262.60052979 -270.35975647 262.24723816 C-270.57019679 239.47259992 -270.72880302 216.69812248 -270.82606602 193.92270851 C-270.8724318 183.34712303 -270.93562023 172.77214239 -271.03871155 162.19694519 C-271.12854571 152.977267 -271.18651082 143.75802692 -271.20655292 134.53792322 C-271.21826508 129.65773732 -271.24569807 124.77880453 -271.31132698 119.89902115 C-271.37266835 115.30053975 -271.39121143 110.70382072 -271.3777256 106.10496902 C-271.38019057 104.42233685 -271.39794785 102.73964243 -271.43260574 101.05736542 C-271.59135919 92.95013909 -271.6560191 86.73429219 -265.94750977 80.34718323 C-264.44234848 78.95404786 -262.9161908 77.58284619 -261.35975647 76.24723816 C-259.9039385 74.51244702 -258.46165174 72.76596433 -257.04725647 70.99723816 C-253.05706279 66.0669465 -248.95012271 61.25098674 -244.80848694 56.44841003 C-241.70595542 52.84215012 -238.66535407 49.19551582 -235.67225647 45.49723816 C-232.12347065 41.12359942 -228.4064532 36.9445697 -224.61366272 32.78239441 C-221.5551059 29.34218059 -218.6692197 25.77426726 -215.79335022 22.18083191 C-214.99026428 21.21274597 -214.18717834 20.24466003 -213.35975647 19.24723816 C-212.87417991 18.51799448 -212.38860334 17.7887508 -211.88831234 17.03740883 C-209.08322818 13.23014048 -206.88575545 10.67084236 -202.23555183 9.37998581 C-198.37050805 9.01947963 -194.55307429 8.93720054 -190.67640686 8.95573425 C-189.19537407 8.93040546 -187.71440041 8.90139448 -186.23350525 8.8690033 C-182.22638588 8.79405088 -178.2210388 8.77679462 -174.21329045 8.77485609 C-170.85415037 8.7692522 -167.49540281 8.7385637 -164.13640207 8.70904601 C-156.19785066 8.64104476 -148.26022686 8.62340409 -140.32142639 8.63444519 C-132.17049878 8.64466321 -124.02450769 8.55877745 -115.87475401 8.42666948 C-108.84823502 8.31690993 -101.82330627 8.27400706 -94.79594034 8.28170073 C-90.61147937 8.28527278 -86.43122871 8.2636114 -82.24762154 8.17473984 C-53.55256703 7.6076096 -53.55256703 7.6076096 -44.06844997 16.3696537 C-41.38714643 19.26669763 -38.94725094 22.23996194 -36.70787716 25.49100685 C-34.83673035 27.92859767 -33.13924096 29.13709905 -30.07899475 29.56950378 C-27.21375328 29.66034646 -24.35131593 29.71772403 -21.48475647 29.74723816 C-19.99395569 29.80911316 -19.99395569 29.80911316 -18.47303772 29.87223816 C-13.63741713 29.92402526 -11.15875548 29.84524981 -7.20741272 26.88786316 C-4.34978659 22.53043506 -4.65501773 17.53784494 -4.67225647 12.49723816 C-4.6557159 10.60652365 -4.63136799 8.71585622 -4.59803772 6.82536316 C-4.59844055 5.99424011 -4.59884338 5.16311707 -4.59925842 4.30680847 C-4.23171773 1.14618331 -3.10040191 0.32483761 0 0 Z " fill="#191B27" transform="translate(613.3597564697266,277.7527618408203)"/>
<path d="M0 0 C40.59 0 81.18 0 123 0 C123 7.59 123 15.18 123 23 C89.67 23 56.34 23 22 23 C22 30.26 22 37.52 22 45 C45.76 45 69.52 45 94 45 C94 52.59 94 60.18 94 68 C70.24 68 46.48 68 22 68 C22 103.64 22 139.28 22 176 C14.74 176 7.48 176 0 176 C0 117.92 0 59.84 0 0 Z " fill="#1A1B28" transform="translate(493,444)"/>
<path d="M0 0 C1.52641508 -0.03034995 3.05279386 -0.06257688 4.57913208 -0.09657288 C7.76546226 -0.15311477 10.94849431 -0.16588664 14.13525391 -0.15112305 C17.38586384 -0.14126036 20.62170329 -0.20379334 23.86962891 -0.33569336 C49.94148902 -1.38314278 49.94148902 -1.38314278 56.80480957 3.79217529 C61.43801546 9.08582828 64.08698104 15.10259436 66.1328125 21.77734375 C66.6278125 23.26234375 66.6278125 23.26234375 67.1328125 24.77734375 C66.25442215 24.77876877 65.3760318 24.78019379 64.47102356 24.78166199 C56.18712641 24.79950216 47.90376294 24.84114557 39.62012196 24.90943432 C35.36150401 24.94370445 31.10324479 24.96881427 26.84448242 24.97290039 C22.73334141 24.97718341 18.62300962 25.00564519 14.5121212 25.05077553 C12.94491988 25.06375064 11.37762171 25.06805812 9.81037331 25.06349754 C7.61203612 25.05859105 5.41606373 25.08467909 3.21801758 25.11791992 C1.96781326 25.12458176 0.71760895 25.13124359 -0.57048035 25.1381073 C-4.95793981 25.98884226 -6.35406138 27.079121 -8.8671875 30.77734375 C-9.55648876 34.09749227 -9.49974939 37.32792472 -9.43481445 40.70825195 C-9.43554459 41.70384628 -9.43627472 42.69944061 -9.43702698 43.72520447 C-9.43354855 47.01006898 -9.39467367 50.29350875 -9.35546875 53.578125 C-9.34614158 55.85783615 -9.33902501 58.13755734 -9.33403015 60.4172821 C-9.3149531 66.41313418 -9.26584517 72.40837922 -9.21051025 78.4039917 C-9.15933365 84.52380156 -9.13651944 90.64370964 -9.11132812 96.76367188 C-9.05772796 108.76849566 -8.97240577 120.7728692 -8.8671875 132.77734375 C-8.26468579 133.09233983 -7.66218409 133.40733591 -7.04142475 133.73187733 C-4.28362947 135.17403924 -1.52621147 136.61692109 1.23120117 138.05981445 C2.17896172 138.55530037 3.12672226 139.05078629 4.10320282 139.56128693 C10.59186095 142.95752246 17.04393716 146.40650864 23.4453125 149.96484375 C26.3121875 151.55296875 29.1790625 153.14109375 32.1328125 154.77734375 C32.1328125 163.68734375 32.1328125 172.59734375 32.1328125 181.77734375 C11.36126429 171.59129607 -8.8198642 160.34048332 -28.90966797 148.87792969 C-30.21149858 148.14599499 -31.53137573 147.44524963 -32.8671875 146.77734375 C-33.03091524 130.48726843 -33.15424849 114.19746114 -33.2298727 97.90676117 C-33.26592427 90.34218291 -33.3150497 82.77811671 -33.39526367 75.21386719 C-33.46516825 68.61864257 -33.51022645 62.02378888 -33.52580696 55.42820406 C-33.53491095 51.93762556 -33.55621091 48.44810795 -33.6072979 44.95787048 C-33.66394786 41.05570014 -33.66510816 37.15455512 -33.66186523 33.25195312 C-33.68703217 32.10252228 -33.7121991 30.95309143 -33.73812866 29.76882935 C-33.6878808 24.17530409 -33.35925292 20.65737709 -29.59538269 16.36573792 C-28.35997253 15.16204601 -27.117771 13.96526352 -25.8671875 12.77734375 C-25.10381073 11.74608871 -24.34043396 10.71483368 -23.55392456 9.65232849 C-16.84379264 0.95558308 -10.37351582 0.01409987 0 0 Z " fill="#84868D" transform="translate(410.8671875,371.22265625)"/>
<path d="M0 0 C2.8100346 1.79363911 4.50940468 3.01880935 6 6 C6.74121094 5.86271484 7.48242188 5.72542969 8.24609375 5.58398438 C17.17912032 4.21177528 27.53895663 3.12225165 36 7 C38.48550164 9.10191252 40.29489191 11.5191435 42.1640625 14.17163086 C50.83343373 26.33474968 59.89812536 37.7907445 75.31347656 40.74029541 C93.86059561 43.45899689 113.10970513 42.19797475 131.76064777 41.36139572 C139.85415068 41.00527268 147.94832836 40.84483794 156.04785538 40.69558156 C168.64984062 40.45842651 181.24540139 40.1186218 193.83984375 39.62133789 C195.67091927 39.55132065 195.67091927 39.55132065 197.53898621 39.47988892 C206.31775566 39.18150538 206.31775566 39.18150538 215 38 C216.175625 36.4840625 216.175625 36.4840625 217.375 34.9375 C220 32 220 32 222.3515625 31.4296875 C227.03234299 31.22257332 229.28341292 31.44427941 233.0625 34.375 C235.87713202 38.18837242 236.55044624 40.2294659 236 45 C234.18689858 47.92937654 232.12704101 50.43647949 229 52 C221.93812375 52.57884232 221.93812375 52.57884232 218.0625 50.1875 C216 48 216 48 215 45 C212.36 44.67 209.72 44.34 207 44 C207 54.89 207 65.78 207 77 C209.64 77 212.28 77 215 77 C215.37125 75.8553125 215.37125 75.8553125 215.75 74.6875 C217.19058109 71.59025066 217.95022608 70.52488696 221 69 C227.54545455 68.15542522 227.54545455 68.15542522 230.81640625 70.0546875 C232.99189211 71.826529 234.73703554 73.47407109 236 76 C236.04227317 80.37950088 235.78687799 83.95082935 233.125 87.5 C229.18797636 90.27907551 225.70916908 90.40596285 221 90 C217.61060444 87.86320715 216.27417443 86.8225233 215 83 C213.92331055 83.07444336 212.84662109 83.14888672 211.73730469 83.22558594 C207.63754157 83.48048811 203.54266066 83.59424238 199.43603516 83.67138672 C197.67968854 83.72279043 195.92393036 83.80959715 194.17138672 83.93603516 C186.90621349 84.44096678 179.43642062 84.93341183 173.61489868 79.96401978 C171.18823736 77.34841265 168.86759581 74.66793521 166.56640625 71.94140625 C161.35119151 65.91024667 157.28424368 61.60472667 149.14111328 60.50439453 C141.46650083 60.12043199 133.84050452 60.60269359 126.1875 61.1875 C98.75863582 63.0825975 98.75863582 63.0825975 92.16357422 57.69482422 C89.51505566 55.11492592 87.34537713 52.36811149 85.15844727 49.39672852 C82.75868017 46.32448477 81.11484701 45.44159171 77.25073242 44.88745117 C74.30268292 44.68979155 71.43040456 44.8039154 68.484375 44.984375 C65 45 65 45 63.015625 43.640625 C62 42 62 42 62 40 C61.34 40 60.68 40 60 40 C60 39.34 60 38.68 60 38 C59.34 38 58.68 38 58 38 C56.52612305 36.56640625 56.52612305 36.56640625 54.82421875 34.5625 C54.19821777 33.83160156 53.5722168 33.10070312 52.92724609 32.34765625 C51.08619168 30.10499357 49.3365282 27.81053134 47.58203125 25.5 C41.62626138 18.1385056 36.56959619 12.831398 26.8046875 11.7265625 C16.28399055 11.23428008 16.28399055 11.23428008 6 13 C3.73849583 15.42543896 3.73849583 15.42543896 2 18 C-1.50317094 19.75158547 -5.18694726 19.6837198 -9 19 C-12.63715985 15.95666217 -13.82298645 14.12108584 -14.5625 9.4375 C-13.91429589 5.47625263 -12.81200626 3.81200626 -10 1 C-6.79826746 -0.60086627 -3.47422941 -0.49917089 0 0 Z " fill="#03ABDB" transform="translate(461,305)"/>
<path d="M0 0 C11.22 0 22.44 0 34 0 C34.33979217 10.51857145 34.61454905 21.03346411 34.77718258 31.55629539 C34.85526805 36.4434227 34.9610116 41.32658269 35.1315918 46.21142578 C35.29539515 50.93210899 35.3844139 55.64899635 35.42315865 60.37230301 C35.4507382 62.16768824 35.50461015 63.96288002 35.58595085 65.75663376 C36.1806852 79.42387986 36.1806852 79.42387986 32.53852654 83.72649002 C28.96980446 86.81524906 25.02398568 89.04924406 20.79619217 91.11112976 C18.38936125 92.30218293 16.14813888 93.7195641 13.88671875 95.1640625 C12.48962279 95.98886938 11.09000937 96.80943211 9.6875 97.625 C8.59791992 98.27275391 8.59791992 98.27275391 7.48632812 98.93359375 C2.25396825 102 2.25396825 102 0 102 C0 68.34 0 34.68 0 0 Z " fill="#85868F" transform="translate(515,518)"/>
<path d="M0 0 C34.7810219 0 34.7810219 0 42.6640625 7.60546875 C48.86902047 14.52873466 50.52076895 20.26744903 50.27734375 29.52734375 C49.66071465 37.24823492 47.35662962 42.60171853 42.03515625 48.2734375 C30.35157136 58.18542314 14.19004268 55 0 55 C0 36.85 0 18.7 0 0 Z " fill="#F7F7F8" transform="translate(593,664)"/>
<path d="M0 0 C38.94 0 77.88 0 118 0 C118 10.56 118 21.12 118 32 C113.359375 32.144375 108.71875 32.28875 103.9375 32.4375 C102.48722412 32.50122803 101.03694824 32.56495605 99.54272461 32.63061523 C90.26514298 32.77043294 90.26514298 32.77043294 86.63183594 30.55786133 C84.86161071 28.80244282 83.42495876 27.04129136 82 25 C81.32710937 24.24332031 80.65421875 23.48664063 79.9609375 22.70703125 C79.17589844 21.76923828 79.17589844 21.76923828 78.375 20.8125 C75.80978101 17.81877942 73.10064414 15.44293174 70 13 C70 12.34 70 11.68 70 11 C69.27052155 11.02220612 68.54104309 11.04441223 67.78945923 11.06729126 C60.87656602 11.26860503 53.9641167 11.42037776 47.04903603 11.51812172 C43.49446081 11.57007048 39.94232893 11.64037264 36.38916016 11.75439453 C32.29307232 11.88499897 28.19950283 11.93255588 24.1015625 11.9765625 C22.21034164 12.05398178 22.21034164 12.05398178 20.28091431 12.13296509 C13.02729895 12.13752883 9.37391695 11.1774308 4.11865234 6.00146484 C0 1.33341716 0 1.33341716 0 0 Z " fill="#171824" transform="translate(550,350)"/>
<path d="M0 0 C2.625 2.125 2.625 2.125 4.625 4.125 C4.955 2.475 5.285 0.825 5.625 -0.875 C8.595 -0.875 11.565 -0.875 14.625 -0.875 C14.7244991 4.65676738 14.79676423 10.18800426 14.84472656 15.72045898 C14.8647382 17.59913213 14.89195637 19.4777438 14.92675781 21.35620117 C14.9757397 24.06965373 14.99807329 26.78227696 15.015625 29.49609375 C15.03627014 30.32459335 15.05691528 31.15309296 15.07818604 32.00669861 C15.08065026 38.53300523 13.64686654 44.71229155 9.21270752 49.71995544 C3.29305877 54.9306511 -2.36850094 55.61975596 -9.99609375 55.515625 C-15.03008822 54.93366032 -19.32954641 53.19366672 -23.375 50.125 C-23.87 48.64 -23.87 48.64 -24.375 47.125 C-22.9375 44.4375 -22.9375 44.4375 -21.375 42.125 C-16.67385057 43.95322478 -16.67385057 43.95322478 -14.546875 45.17578125 C-11.87258828 46.34457922 -9.78680674 46.4255008 -6.875 46.4375 C-5.46734375 46.46263672 -5.46734375 46.46263672 -4.03125 46.48828125 C-0.8766523 46.05684362 0.42322837 45.41603264 2.625 43.125 C3.53061146 40.6420581 3.53061146 40.6420581 3.875 37.9375 C4.02453125 37.03644531 4.1740625 36.13539063 4.328125 35.20703125 C4.47507812 34.17642578 4.47507812 34.17642578 4.625 33.125 C3.2328125 34.0840625 3.2328125 34.0840625 1.8125 35.0625 C-3.48121201 38.48784306 -8.20952173 38.81753422 -14.375 38.125 C-19.96931847 35.32784076 -22.97090372 31.23114442 -26.375 26.125 C-27.13755944 19.14669447 -27.43510857 11.91173699 -23.71484375 5.7421875 C-17.81193496 -1.3826062 -8.41763296 -4.67646276 0 0 Z " fill="#262433" transform="translate(520.375,678.875)"/>
<path d="M0 0 C3.23939656 1.73539102 5.42321134 3.42321134 8 6 C8.33 4.35 8.66 2.7 9 1 C11.31 1 13.62 1 16 1 C16.09947326 6.67418403 16.17175249 12.3478515 16.21972656 18.02270508 C16.23974243 19.94987845 16.26696383 21.87699186 16.30175781 23.80395508 C16.35072041 26.58690252 16.37306917 29.36904156 16.390625 32.15234375 C16.41127014 33.00271713 16.43191528 33.85309052 16.45318604 34.72923279 C16.45544243 40.85463553 15.1299817 45.70248294 12 51 C7.64485846 55.35514154 2.9475018 57.2834453 -3.1875 57.4375 C-9.23891431 57.33910302 -14.04539166 55.44204689 -19 52 C-19.66 51.01 -20.32 50.02 -21 49 C-20.34 48.01 -19.68 47.02 -19 46 C-16.30298166 46.53940367 -14.26109801 47.35524134 -11.75 48.5625 C-6.52248321 50.8348467 -2.00250828 50.77875322 3.375 48.6875 C6.21698375 47.10779753 6.21698375 47.10779753 8 44 C8.24107326 41.71351152 8.24107326 41.71351152 8.125 39.3125 C8.10695313 38.50425781 8.08890625 37.69601562 8.0703125 36.86328125 C8.04710937 36.24839844 8.02390625 35.63351562 8 35 C7.0925 35.825 6.185 36.65 5.25 37.5 C0.18170771 41.09817911 -5.02413728 40.95359511 -11 40 C-16.43267542 38.21293572 -19.26639974 35.12930103 -22 30.1875 C-24.92640006 23.47165986 -24.79482737 18.76977282 -22.5 11.875 C-18.3806658 2.25828094 -9.8969133 -1.13844862 0 0 Z " fill="#65666B" transform="translate(695,677)"/>
<path d="M0 0 C4.61027207 0.13686745 6.80854602 0.22548914 10.5625 3.13671875 C13.39024412 6.96785595 13.96007959 8.97689096 13.5 13.76171875 C11.84976991 16.82643177 10.443924 19.06950782 7.625 21.13671875 C4.64483554 22.01323771 2.60161374 22.19594467 -0.5 21.76171875 C-3.92765324 19.6939929 -6.20709412 17.6404364 -7.5 13.76171875 C-12.25919747 13.25608319 -17.00210376 12.90010115 -21.78222656 12.66308594 C-23.39436852 12.56420109 -25.00480106 12.42896232 -26.61035156 12.25292969 C-32.4166048 11.63369314 -38.07306206 11.32433857 -43.5 13.76171875 C-46.84745413 16.77204836 -49.58925512 20.25077137 -52.44921875 23.71875 C-58.84794221 31.15628423 -64.08926263 34.83653621 -73.7499485 35.80447197 C-81.54777126 36.34398025 -89.34378426 36.09579329 -97.14501953 35.77618408 C-100.38485349 35.67303748 -103.61993439 35.68641955 -106.86104679 35.70140743 C-110.0186955 35.706216 -113.17340079 35.6542957 -116.33019829 35.58413887 C-117.81971214 35.55452779 -119.30955732 35.53808993 -120.79936409 35.53605461 C-128.0910363 35.48474856 -133.9967657 34.91369199 -139.51063442 29.80043125 C-145.5 23.64335098 -145.5 23.64335098 -145.5 20.76171875 C-146.49 21.09171875 -147.48 21.42171875 -148.5 21.76171875 C-155.64480667 22.45315165 -155.64480667 22.45315165 -159.4375 19.38671875 C-162.41206287 15.60091147 -162.97335226 13.58991178 -162.5 8.76171875 C-160.40741149 5.58675687 -158.67308714 3.87711018 -155.5 1.76171875 C-152.19428522 1.32511491 -149.68580613 1.05129147 -146.74609375 2.8125 C-144.56195862 4.59664894 -142.77090617 6.21990642 -141.5 8.76171875 C-141.6610035 10.09574777 -141.82864781 11.42897947 -142 12.76171875 C-141.98075475 18.53277811 -139.26098924 21.54738708 -135.40994263 25.60906982 C-129.99046596 29.61816283 -124.03544107 29.32332814 -117.52734375 29.30078125 C-116.07634871 29.32282233 -114.62538334 29.34690015 -113.17445374 29.37289429 C-110.14021658 29.4145416 -107.10887448 29.41737837 -104.07446289 29.39501953 C-100.99155667 29.37635296 -97.91944515 29.41757998 -94.83813477 29.51806641 C-74.8409529 30.6822109 -74.8409529 30.6822109 -57.61024475 22.11654663 C-53.97958225 18.19712794 -50.96229144 14.03514985 -48.07759094 9.55029297 C-46.5 7.76171875 -46.5 7.76171875 -42.65869141 7.31103516 C-41.05622064 7.31029627 -39.45366643 7.32898677 -37.8515625 7.36328125 C-36.10676949 7.35854474 -34.36197774 7.35332122 -32.6171875 7.34765625 C-29.86956151 7.36239146 -27.12244179 7.38675145 -24.375 7.421875 C-21.72072961 7.44857025 -19.06839113 7.43893563 -16.4140625 7.42578125 C-15.1872728 7.45824448 -15.1872728 7.45824448 -13.93569946 7.49136353 C-9.57741358 7.51135496 -9.57741358 7.51135496 -5.92449951 5.40830994 C-2.06282097 0.62851576 -2.06282097 0.62851576 0 0 Z " fill="#05AFE0" transform="translate(683.5,300.23828125)"/>
<path d="M0 0 C4.64339353 2.99868527 8.43101785 7.15242854 10.18359375 12.41015625 C10.73879064 19.01913461 10.84533237 25.66292411 7.18359375 31.41015625 C2.16754561 36.90392326 -2.60849383 40.3616518 -10.12890625 40.78515625 C-15.94225137 40.62099202 -20.29585022 38.71833727 -24.578125 34.796875 C-29.57122123 29.34436556 -31.28921079 24.06365661 -31.0546875 16.70703125 C-30.4186565 10.57610945 -28.51271848 6.70971308 -23.94140625 2.53515625 C-16.26420037 -3.5926499 -8.82390379 -4.26667098 0 0 Z " fill="#222132" transform="translate(447.81640625,679.58984375)"/>
<path d="M0 0 C2.4375 2.0625 2.4375 2.0625 3.5625 4 C3.36928164 7.18810291 1.53301209 8.77648681 -0.5625 11.0625 C-2.54198203 10.09242271 -4.4848666 9.10804936 -6.38671875 7.9921875 C-11.47693088 5.11093535 -15.74571684 4.07608747 -21.5625 5.0625 C-27.11132068 6.74910197 -30.44866003 9.50287429 -33.65234375 14.28125 C-36.07170384 19.01613498 -36.40764648 24.24695485 -34.87890625 29.33984375 C-32.71615855 34.73325191 -30.36287018 37.79416286 -25.5625 41.0625 C-19.5742216 43.0585928 -12.95941979 42.63126063 -6.875 41.1875 C-4.08290325 38.62178948 -4.08829516 37.5550283 -3.6875 33.875 C-3.64625 32.286875 -3.605 30.69875 -3.5625 29.0625 C-8.1825 29.0625 -12.8025 29.0625 -17.5625 29.0625 C-17.5625 26.4225 -17.5625 23.7825 -17.5625 21.0625 C-9.9725 21.0625 -2.3825 21.0625 5.4375 21.0625 C6.6347771 42.3740323 6.6347771 42.3740323 3.45703125 46.85546875 C0.79044664 48.42475984 -1.56719153 49.31367288 -4.5625 50.0625 C-6.2021875 50.743125 -6.2021875 50.743125 -7.875 51.4375 C-17.51591409 53.07155324 -25.21613294 52.81867315 -33.890625 47.9765625 C-39.4585302 43.98785848 -43.54167747 38.63017322 -45.5625 32.0625 C-46.43243999 21.89634082 -46.6939487 13.32416652 -40.01953125 5.1796875 C-29.36378737 -6.47579436 -13.48277495 -8.16062694 0 0 Z " fill="#202030" transform="translate(240.5625,667.9375)"/>
<path d="M0 0 C2.97672584 1.77280561 5.42804007 3.85608015 7 7 C7.64082016 6.93924789 8.28164032 6.87849579 8.94187927 6.81590271 C58.2309927 2.40179403 58.2309927 2.40179403 72.35655212 13.25099182 C79.90734415 19.87756557 86.60808219 27.59189443 92.29125977 35.88136292 C94.46526611 38.87014078 95.81558426 40.71491131 99.50125122 41.60205078 C102.16589089 41.86773328 102.16589089 41.86773328 104.73109436 41.84802246 C108.08940236 42.07297117 109.75252082 43.60752216 112 46 C113.76961098 49.53922195 113.03393444 53.27526723 112 57 C110.21129829 59.6258382 108.88810491 60.34201385 106 62 C102.4375 62.625 102.4375 62.625 99 62 C96.125 59.5625 96.125 59.5625 94 57 C93.67 56.67 93.34 56.34 93 56 C93.17789063 54.98679687 93.17789063 54.98679687 93.359375 53.953125 C93.92625476 50.03031706 94.17706085 46.73038005 91.85742188 43.3203125 C88.2691588 39.17302575 84.14992196 35.57127264 80 32 C79.24332031 31.33097656 78.48664063 30.66195313 77.70703125 29.97265625 C76.47466602 28.89274857 75.23539044 27.8206593 73.98828125 26.7578125 C69.80201407 23.05679043 65.72043552 19.17024227 62 15 C62 14.34 62 13.68 62 13 C43.52 13 25.04 13 6 13 C5.67 14.32 5.34 15.64 5 17 C3.16304562 19.14311344 1.67292575 19.87296168 -1.08984375 20.39453125 C-5.63140349 20.71946814 -7.43699086 20.4595993 -11.0625 17.5 C-13.71025581 13.61110865 -13.65676891 10.59738237 -13 6 C-9.39443173 0.35127638 -6.64247344 -0.66424734 0 0 Z " fill="#01BFF0" transform="translate(431,328)"/>
<path d="M0 0 C3.76773379 1.90421103 5.50849738 4.74625331 7.5625 8.375 C8.01660156 11.99365234 8.01660156 11.99365234 7.953125 15.9609375 C7.94746521 16.66272125 7.94180542 17.364505 7.93597412 18.08755493 C7.91374483 20.30909087 7.86358056 22.52895923 7.8125 24.75 C7.79241731 26.26429947 7.77416964 27.77862446 7.7578125 29.29296875 C7.71392633 32.98751268 7.64499577 36.68109333 7.5625 40.375 C4.5925 40.375 1.6225 40.375 -1.4375 40.375 C-1.4375 39.055 -1.4375 37.735 -1.4375 36.375 C-2.25541016 36.91640625 -2.25541016 36.91640625 -3.08984375 37.46875 C-8.56223774 40.83637707 -12.98940819 42.674333 -19.4375 41.375 C-24.35374028 39.00792134 -26.62352527 36.51459507 -28.4375 31.375 C-28.96827531 27.12879753 -28.73303488 24.96606976 -26.8125 21.125 C-23.83854602 17.68147434 -20.9950815 15.66624842 -16.35791016 15.13818359 C-14.08522454 15.08083032 -11.83456418 15.11240635 -9.5625 15.1875 C-8.386875 15.20780273 -8.386875 15.20780273 -7.1875 15.22851562 C-5.27053218 15.26358211 -3.35392249 15.31737928 -1.4375 15.375 C-2.51051036 11.23322247 -2.51051036 11.23322247 -5.0625 8 C-10.30329504 6.62084341 -14.66233225 6.81687442 -19.4375 9.375 C-21.6875 9 -21.6875 9 -23.4375 8.375 C-23.7675 6.395 -24.0975 4.415 -24.4375 2.375 C-16.5705952 -1.97607821 -8.51754866 -3.76798621 0 0 Z " fill="#2B2838" transform="translate(311.4375,678.625)"/>
<path d="M0 0 C5.59532767 3.33830056 9.89541414 7.64125809 11.64453125 14.0546875 C11.64453125 17.0246875 11.64453125 19.9946875 11.64453125 23.0546875 C1.74453125 23.0546875 -8.15546875 23.0546875 -18.35546875 23.0546875 C-16.17487042 29.90294645 -16.17487042 29.90294645 -12.35546875 32.0546875 C-6.40319492 32.83150968 -2.41001815 32.32527829 2.64453125 29.0546875 C4.83203125 29.6171875 4.83203125 29.6171875 6.64453125 31.0546875 C7.89453125 33.1796875 7.89453125 33.1796875 8.64453125 35.0546875 C2.18118637 40.59469739 -2.79585356 41.51332505 -11.1875 41.37109375 C-16.76134384 40.81439665 -19.7403071 38.75958035 -23.60546875 34.6796875 C-28.03726457 28.03199378 -29.3526874 23.02110471 -28.35546875 15.0546875 C-26.34378443 8.07366393 -21.56444534 3.58529119 -15.46484375 -0.08203125 C-10.63869193 -2.05717857 -4.81514399 -1.93244585 0 0 Z " fill="#242333" transform="translate(571.35546875,677.9453125)"/>
<path d="M0 0 C34.7810219 0 34.7810219 0 42.6640625 7.60546875 C48.86902047 14.52873466 50.52076895 20.26744903 50.27734375 29.52734375 C49.66071465 37.24823492 47.35662962 42.60171853 42.03515625 48.2734375 C30.35157136 58.18542314 14.19004268 55 0 55 C0 36.85 0 18.7 0 0 Z M7 6 C7 20.19 7 34.38 7 49 C24.9898498 49.90776833 24.9898498 49.90776833 38.4375 41.625 C42.54861202 34.7183318 44.24600827 29.10487623 43 21 C40.92706421 15.88164002 37.68565567 11.94215588 33 9 C23.61501309 4.94662968 23.61501309 4.94662968 7 6 Z " fill="#62646A" transform="translate(593,664)"/>
<path d="M0 0 C18.81 0 37.62 0 57 0 C57 6.27 57 12.54 57 19 C38.19 19 19.38 19 0 19 C0 12.73 0 6.46 0 0 Z " fill="#888A90" transform="translate(492,416)"/>
<path d="M0 0 C3.27458126 3.09266008 4.17264643 4.96952064 4.47705078 9.51660156 C4.46657715 10.8362793 4.45610352 12.15595703 4.4453125 13.515625 C4.4424826 14.22023865 4.43965271 14.92485229 4.43673706 15.65081787 C4.42557801 17.8923876 4.40048193 20.13355186 4.375 22.375 C4.36496464 23.89843171 4.35583976 25.42186971 4.34765625 26.9453125 C4.32565291 30.67200586 4.29115272 34.39846333 4.25 38.125 C1.94 38.125 -0.37 38.125 -2.75 38.125 C-3.08 36.805 -3.41 35.485 -3.75 34.125 C-4.61625 34.805625 -4.61625 34.805625 -5.5 35.5 C-10.58247961 39.17067972 -14.56585022 39.80256771 -20.75 39.125 C-24.64398123 37.80251581 -26.40313142 36.51750918 -29.125 33.4375 C-31.24783872 29.11017492 -31.28204782 26.91343042 -30.75 22.125 C-29.20826588 17.88523117 -26.56822536 15.75303788 -22.48828125 13.83984375 C-16.42116995 12.25599016 -9.96631418 12.85341346 -3.75 13.125 C-4.05393426 8.09623483 -4.05393426 8.09623483 -6.8125 4.1875 C-10.58192816 2.82408981 -13.78549686 2.4977561 -17.75 3.125 C-20.51441969 4.53259341 -20.51441969 4.53259341 -22.75 6.125 C-23.74 6.125 -24.73 6.125 -25.75 6.125 C-26.08 4.475 -26.41 2.825 -26.75 1.125 C-18.17636226 -4.9155175 -9.05314374 -6.172598 0 0 Z " fill="#65666A" transform="translate(801.75,680.875)"/>
<path d="M0 0 C13.2 0 26.4 0 40 0 C40 2.97 40 5.94 40 9 C30.1 9 20.2 9 10 9 C10 13.95 10 18.9 10 24 C18.58 24 27.16 24 36 24 C36 26.64 36 29.28 36 32 C27.42 32 18.84 32 10 32 C10 39.59 10 47.18 10 55 C6.7 55 3.4 55 0 55 C0 36.85 0 18.7 0 0 Z " fill="#222232" transform="translate(374,664)"/>
<path d="M0 0 C3.3 0 6.6 0 10 0 C20 24.7 20 24.7 20 29 C22.16671573 28.18650823 22.16671573 28.18650823 22.82202148 26.06982422 C23.08571533 25.2398291 23.34940918 24.40983398 23.62109375 23.5546875 C23.91693359 22.64203125 24.21277344 21.729375 24.51757812 20.7890625 C24.82115234 19.82742188 25.12472656 18.86578125 25.4375 17.875 C27.38311876 11.782912 29.35973699 5.82957154 32 0 C34.97 0 37.94 0 41 0 C40.41148974 4.26086181 39.39701566 7.95228097 37.80859375 11.9453125 C37.13546143 13.6473584 37.13546143 13.6473584 36.44873047 15.38378906 C35.97064941 16.57713867 35.49256836 17.77048828 35 19 C34.2886792 20.80936035 34.2886792 20.80936035 33.56298828 22.65527344 C32.3325044 25.77228058 31.08659649 28.88169305 29.82543945 31.98632812 C29.31332929 33.25406708 28.80655613 34.52397401 28.30493164 35.79589844 C25.43062085 43.07587708 22.75093097 49.51301996 17 55 C13.30624122 56.23125293 9.84512599 56.46420032 6 56 C3.5 54.5 3.5 54.5 2 53 C2.495 50.03 2.495 50.03 3 47 C3.61488281 47.04640625 4.22976563 47.0928125 4.86328125 47.140625 C9.8365499 47.4966253 9.8365499 47.4966253 14.125 45.375 C16.0105687 40.25702781 13.42010155 35.16133508 11.4375 30.375 C10.90213276 29.06649256 10.36698934 27.75789352 9.83203125 26.44921875 C9.54150879 25.74458496 9.25098633 25.03995117 8.95166016 24.31396484 C7.15556718 19.94675877 5.38967044 15.56747425 3.625 11.1875 C3.26720459 10.3094873 2.90940918 9.43147461 2.54077148 8.52685547 C2.21020752 7.70717285 1.87964355 6.88749023 1.5390625 6.04296875 C1.24209473 5.31102295 0.94512695 4.57907715 0.63916016 3.82495117 C0 2 0 2 0 0 Z " fill="#22212F" transform="translate(325,678)"/>
<path d="M0 0 C4.61027207 0.13686745 6.80854602 0.22548914 10.5625 3.13671875 C13.39024412 6.96785595 13.96007959 8.97689096 13.5 13.76171875 C11.84976991 16.82643177 10.443924 19.06950782 7.625 21.13671875 C4.64483554 22.01323771 2.60161374 22.19594467 -0.5 21.76171875 C-3.92765324 19.6939929 -6.20709412 17.6404364 -7.5 13.76171875 C-12.40669444 13.46168569 -17.30790616 13.24588135 -22.22167969 13.10253906 C-23.886689 13.04272992 -25.55108266 12.96123435 -27.21386719 12.85644531 C-37.94491611 12.05243636 -37.94491611 12.05243636 -47.34960938 16.48632812 C-50.38492115 19.34356655 -52.98758182 22.44053406 -55.5 25.76171875 C-56.49 25.43171875 -57.48 25.10171875 -58.5 24.76171875 C-55.74137056 20.94134877 -53.06497878 17.31414244 -49.6875 14.01171875 C-47.44324961 11.70334692 -47.09135282 10.78842778 -46.5 7.76171875 C-45.3447583 7.76284668 -44.1895166 7.76397461 -42.99926758 7.76513672 C-38.70303529 7.7614589 -34.40792338 7.71860833 -30.11206055 7.6640625 C-28.25471217 7.64592149 -26.39722901 7.63833057 -24.53979492 7.64160156 C-21.8653169 7.64446426 -19.19362304 7.60909586 -16.51953125 7.56640625 C-15.2786248 7.58004715 -15.2786248 7.58004715 -14.01264954 7.59396362 C-9.60784759 7.53964197 -9.60784759 7.53964197 -5.91781616 5.3993988 C-2.06347833 0.62871606 -2.06347833 0.62871606 0 0 Z " fill="#02BAEA" transform="translate(683.5,300.23828125)"/>
<path d="M0 0 C3.13594153 1.26772104 4.56546548 2.52051364 6.8125 5 C8.6529005 9.64943285 8.65053986 14.07035347 8 19 C6.30640389 22.57536956 5.10510942 24.32465536 1.75 26.375 C-3.73367056 27.62128876 -7.41478846 27.82196154 -12.375 25.25 C-15.70012924 22.39988922 -16.79645775 20.53835086 -17.37109375 16.1953125 C-17.57244136 6.8859466 -17.57244136 6.8859466 -14.625 3.3125 C-10.00560222 -0.75696947 -5.97026497 -0.51792519 0 0 Z " fill="#FAFBFA" transform="translate(696,684)"/>
<path d="M0 0 C3.76571041 1.90318841 5.50371879 4.75251106 7.5625 8.375 C8.01660156 11.90185547 8.01660156 11.90185547 7.953125 15.7421875 C7.94746521 16.42177521 7.94180542 17.10136292 7.93597412 17.80154419 C7.91375351 19.95177549 7.86359198 22.10028074 7.8125 24.25 C7.79241614 25.7161216 7.77416868 27.18226958 7.7578125 28.6484375 C7.71393811 32.22451008 7.64501443 35.79958631 7.5625 39.375 C4.9225 39.375 2.2825 39.375 -0.4375 39.375 C-0.4375 38.385 -0.4375 37.395 -0.4375 36.375 C-2.37759522 34.66967677 -2.37759522 34.66967677 -4.4375 33.375 C-4.1075 32.859375 -3.7775 32.34375 -3.4375 31.8125 C-2.11739123 28.59473488 -2.30507895 25.8179472 -2.4375 22.375 C-5.0775 21.715 -7.7175 21.055 -10.4375 20.375 C-10.4375 19.055 -10.4375 17.735 -10.4375 16.375 C-7.4675 16.375 -4.4975 16.375 -1.4375 16.375 C-2.31677917 11.6596357 -2.31677917 11.6596357 -5.0625 7.9375 C-10.33815795 6.68800207 -14.64373845 6.80691345 -19.4375 9.375 C-21.6875 9 -21.6875 9 -23.4375 8.375 C-23.7675 6.395 -24.0975 4.415 -24.4375 2.375 C-16.5705952 -1.97607821 -8.51754866 -3.76798621 0 0 Z " fill="#1C1A2A" transform="translate(311.4375,678.625)"/>
<path d="M0 0 C3.0190434 1.75299294 5.41511201 3.83022401 7 7 C7.04227317 11.37950088 6.78687799 14.95082935 4.125 18.5 C0.18797636 21.27907551 -3.29083092 21.40596285 -8 21 C-11.38939556 18.86320715 -12.72582557 17.8225233 -14 14 C-33.305 13.505 -33.305 13.505 -53 13 C-53 9 -53 9 -51 7 C-48.19835144 6.89542425 -45.50565087 6.91082329 -42.7109375 7.0234375 C-41.48330185 7.06097641 -41.48330185 7.06097641 -40.23086548 7.09927368 C-37.61182852 7.1815744 -34.99353446 7.27812382 -32.375 7.375 C-30.60159304 7.43322934 -28.82815542 7.49053283 -27.0546875 7.546875 C-22.70269621 7.68716799 -18.35131852 7.84024328 -14 8 C-13.70351563 7.21238281 -13.40703125 6.42476563 -13.1015625 5.61328125 C-10.65338916 -0.19461934 -5.94329491 -1.25482234 0 0 Z " fill="#0ABFEF" transform="translate(690,374)"/>
<path d="M0 0 C0.66 0.495 1.32 0.99 2 1.5 C1.67 2.49 1.34 3.48 1 4.5 C1.87483915 6.66715557 1.87483915 6.66715557 3 8.5 C2.01 8.995 2.01 8.995 1 9.5 C0.34 9.17 -0.32 8.84 -1 8.5 C-7.6753469 7.76425636 -7.6753469 7.76425636 -13.5625 10.375 C-16.25008798 14.34795615 -16.59789937 17.77835352 -16 22.5 C-14.46752277 26.03136057 -13.27767376 27.91724002 -9.73046875 29.53515625 C-7.50090103 30.29004926 -5.2863391 30.94307125 -3 31.5 C-2.67 33.48 -2.34 35.46 -2 37.5 C-5.71204487 39.35602244 -9.9487305 38.94875601 -14 38.5 C-19.59431847 35.70284076 -22.59590372 31.60614442 -26 26.5 C-26.76255944 19.52169447 -27.06010857 12.28673699 -23.33984375 6.1171875 C-17.60830923 -0.80075795 -8.38502519 -4.1925126 0 0 Z " fill="#222030" transform="translate(520,678.5)"/>
<path d="M0 0 C2 1 2 1 2.8046875 3.30859375 C3.05129087 6.70678814 2.27400322 7.49260905 0.125 10.0625 C-3.78467917 15.42020849 -3.97806401 20.51791472 -4 27 C-3.34 27 -2.68 27 -2 27 C-1.34 27.825 -0.68 28.65 0 29.5 C3.76719 32.639325 5.87602061 32.59453914 10.6328125 32.3828125 C13.56991025 31.9078363 15.52598698 30.60083196 18 29 C20.1875 29.5625 20.1875 29.5625 22 31 C23.25 33.125 23.25 33.125 24 35 C17.53665512 40.54000989 12.55961519 41.45863755 4.16796875 41.31640625 C-1.40587509 40.75970915 -4.38483835 38.70489285 -8.25 34.625 C-12.68179582 27.97730628 -13.99721865 22.96641721 -13 15 C-11.18471073 8.70051401 -7.2495023 4.73671469 -2 1 C-1.34 0.67 -0.68 0.34 0 0 Z " fill="#221F2E" transform="translate(556,678)"/>
<path d="M0 0 C0 2.97 0 5.94 0 9 C-3.36914062 9.9765625 -3.36914062 9.9765625 -6.73828125 10.953125 C-9.53998988 12.2499435 -10.41281165 13.35840141 -12 16 C-12.50184739 18.89560969 -12.50184739 18.89560969 -12.51171875 22.078125 C-12.54716797 23.23828125 -12.58261719 24.3984375 -12.61914062 25.59375 C-12.65297852 27.40359375 -12.65297852 27.40359375 -12.6875 29.25 C-12.72166016 30.47203125 -12.75582031 31.6940625 -12.79101562 32.953125 C-12.87347162 35.96865846 -12.94263201 38.98390194 -13 42 C-16.3 42 -19.6 42 -23 42 C-23 28.47 -23 14.94 -23 1 C-20.03 1 -17.06 1 -14 1 C-13.67 2.98 -13.34 4.96 -13 7 C-12.13375 5.824375 -12.13375 5.824375 -11.25 4.625 C-7.74674144 0.53786501 -5.33325582 -0.29629199 0 0 Z " fill="#1A1927" transform="translate(490,677)"/>
<path d="M0 0 C2.31 0 4.62 0 7 0 C7 3.63 7 7.26 7 11 C10.3 11 13.6 11 17 11 C17 12.98 17 14.96 17 17 C13.7 17 10.4 17 7 17 C7.13810905 21.47944035 7.28677416 25.95846783 7.4375 30.4375 C7.47681641 31.71689453 7.51613281 32.99628906 7.55664062 34.31445312 C7.61948242 36.13686523 7.61948242 36.13686523 7.68359375 37.99609375 C7.72025146 39.12200928 7.75690918 40.2479248 7.79467773 41.40795898 C7.71218045 43.92853441 7.71218045 43.92853441 9 45 C11.67058851 45.14115161 14.32432238 45.04247107 17 45 C17.33 46.98 17.66 48.96 18 51 C15.18913877 51.93695374 13.06136028 52.29023573 10.125 52.4375 C9.28195312 52.49808594 8.43890625 52.55867187 7.5703125 52.62109375 C4.54132929 51.8891662 2.83923163 50.75071247 0.95507812 48.25317383 C-1.30068805 42.93148005 -0.49316711 36.79999247 -0.3125 31.125 C-0.28739222 29.75524892 -0.26458339 28.38545365 -0.24414062 27.015625 C-0.1853436 23.67595378 -0.10319834 20.33854569 0 17 C-2.31 17 -4.62 17 -7 17 C-7 15.02 -7 13.04 -7 11 C-4.69 11 -2.38 11 0 11 C0 7.37 0 3.74 0 0 Z " fill="#6D6F74" transform="translate(747,667)"/>
<path d="M0 0 C9.9 0 19.8 0 30 0 C30 5.61 30 11.22 30 17 C20.1 17 10.2 17 0 17 C0 11.39 0 5.78 0 0 Z " fill="#181926" transform="translate(493,417)"/>
<path d="M0 0 C0 3.3 0 6.6 0 10 C-1.5778125 10.0928125 -1.5778125 10.0928125 -3.1875 10.1875 C-7.6516431 11.13887476 -9.0938676 12.58102071 -12 16 C-12.33 16.33 -12.66 16.66 -13 17 C-13.15786308 18.85174706 -13.25107356 20.7090911 -13.31640625 22.56640625 C-13.35830078 23.69111328 -13.40019531 24.81582031 -13.44335938 25.97460938 C-13.48267578 27.15861328 -13.52199219 28.34261719 -13.5625 29.5625 C-13.60568359 30.75037109 -13.64886719 31.93824219 -13.69335938 33.16210938 C-13.79983546 36.10794784 -13.90184841 39.0538743 -14 42 C-16.97 42 -19.94 42 -23 42 C-23 28.47 -23 14.94 -23 1 C-20.03 1 -17.06 1 -14 1 C-13.67 2.98 -13.34 4.96 -13 7 C-12.2575 6.21625 -11.515 5.4325 -10.75 4.625 C-6.91357181 0.96295491 -5.32682323 0 0 0 Z " fill="#1A1926" transform="translate(279,677)"/>
<path d="M0 0 C0.80555328 0.72912346 0.80555328 0.72912346 1.62738037 1.47297668 C4.60316056 3.38819549 6.43856356 3.39536306 9.96191406 3.43237305 C11.16285706 3.45216721 12.36380005 3.47196136 13.60113525 3.49235535 C14.89291687 3.49874527 16.18469849 3.50513519 17.515625 3.51171875 C18.85513961 3.52857008 20.19463846 3.54672094 21.53411865 3.56611633 C25.05215527 3.61357396 28.57012795 3.64341028 32.08837891 3.66955566 C35.68144355 3.69938289 39.27428797 3.7459057 42.8671875 3.79101562 C49.9113322 3.87700011 56.95554492 3.94436678 64 4 C64 4.66 64 5.32 64 6 C64.58007812 6.25394531 65.16015625 6.50789063 65.7578125 6.76953125 C69.86082259 9.02118313 72.80970454 12.6267048 76 16 C76.93392578 16.96099609 76.93392578 16.96099609 77.88671875 17.94140625 C78.71623047 18.83666016 78.71623047 18.83666016 79.5625 19.75 C80.30693359 20.54664063 80.30693359 20.54664063 81.06640625 21.359375 C82 23 82 23 81.65234375 25.203125 C81.32943359 26.09257812 81.32943359 26.09257812 81 27 C80.01 27 79.02 27 78 27 C76.58387756 25.46424866 76.58387756 25.46424866 75.06274414 23.33618164 C69.19198454 15.8817323 63.82148324 9.93956779 54.07763672 8.50341797 C46.87636289 7.95477787 39.69190605 8.08873555 32.48254395 8.36914062 C29.03658939 8.48432803 25.59015685 8.50014291 22.14257812 8.52539062 C15.42443035 8.59410342 8.71404519 8.75856526 2 9 C0.4375 6.1875 0.4375 6.1875 -1 3 C-0.67 2.01 -0.34 1.02 0 0 Z " fill="#03A8D9" transform="translate(556,357)"/>
<path d="M0 0 C18.81 0 37.62 0 57 0 C57 2.64 57 5.28 57 8 C38.19 8 19.38 8 0 8 C0 5.36 0 2.72 0 0 Z " fill="#1B1D29" transform="translate(492,273)"/>
<path d="M0 0 C3.58552881 1.63687185 4.79315055 2.68972583 7 6 C7.30078125 8.7421875 7.30078125 8.7421875 7.3125 11.875 C7.32925781 12.90367187 7.34601563 13.93234375 7.36328125 14.9921875 C6.94933376 18.41949466 6.04951391 20.24491572 4 23 C-0.00254616 25.66836411 -3.29313299 25.8340238 -8 25 C-10.75569447 22.81840855 -12.43588747 21.12822506 -14 18 C-14.93762008 7.59395414 -14.93762008 7.59395414 -12.125 2.8125 C-8.33391191 -0.42107514 -4.84006504 -0.52952727 0 0 Z " fill="#F9F9F9" transform="translate(441,686)"/>
<path d="M0 0 C2.93423195 1.79646854 4.47205355 2.9441071 6 6 C6.42308538 10.59698532 6.53894467 14.70653278 4.75 19 C1.65469179 22.5374951 -0.20984554 22.92474719 -4.9375 23.375 C-8.09516598 23.29267724 -9.04689792 22.97145344 -11.875 21.25 C-15.58802221 17.31856472 -16.45236933 14.57438266 -16.328125 9.03515625 C-15.79173147 5.70823925 -14.11151942 3.54624401 -12 1 C-8.30274625 -0.84862688 -4.03538558 -0.47587094 0 0 Z " fill="#F8F8F8" transform="translate(519,686)"/>
<path d="M0 0 C2.9375 1.75 2.9375 1.75 5 4 C5.33 5.32 5.66 6.64 6 8 C15.24 8 24.48 8 34 8 C34 8.99 34 9.98 34 11 C33.17274414 11.03440186 32.34548828 11.06880371 31.49316406 11.10424805 C27.74385409 11.27402514 23.99742184 11.48032844 20.25 11.6875 C18.29707031 11.76774414 18.29707031 11.76774414 16.3046875 11.84960938 C15.05429687 11.92373047 13.80390625 11.99785156 12.515625 12.07421875 C11.36352539 12.13182373 10.21142578 12.18942871 9.02441406 12.2487793 C5.172641 13.20550401 4.19919617 14.79341195 2 18 C-1.50317094 19.75158547 -5.18694726 19.6837198 -9 19 C-12.63715985 15.95666217 -13.82298645 14.12108584 -14.5625 9.4375 C-13.91429589 5.47625263 -12.81200626 3.81200626 -10 1 C-6.79337112 -0.60331444 -3.47896647 -0.48652213 0 0 Z " fill="#04B8E9" transform="translate(461,305)"/>
<path d="M0 0 C3.75172009 2.50114673 5.5144439 3.91686969 7.36938477 8.0546875 C10.35866604 11.40157282 10.8796107 11.46274791 15.13574219 11.77294922 C17.27242009 11.81390864 19.40987825 11.82243651 21.546875 11.8046875 C22.6732135 11.81839386 23.799552 11.83210022 24.96002197 11.84622192 C28.55708441 11.88360882 32.15277039 11.87980079 35.75 11.875 C38.18882375 11.89312049 40.62762917 11.91392112 43.06640625 11.9375 C49.04440608 11.98943253 55.0217954 12.00754896 61 12 C61 12.33 61 12.66 61 13 C42.85 13 24.7 13 6 13 C5.67 14.32 5.34 15.64 5 17 C3.16304562 19.14311344 1.67292575 19.87296168 -1.08984375 20.39453125 C-5.63140349 20.71946814 -7.43699086 20.4595993 -11.0625 17.5 C-13.71025581 13.61110865 -13.65676891 10.59738237 -13 6 C-9.39443173 0.35127638 -6.64247344 -0.66424734 0 0 Z " fill="#07AADB" transform="translate(431,328)"/>
<path d="M0 0 C1.98 0 3.96 0 6 0 C6 18.81 6 37.62 6 57 C4.02 57 2.04 57 0 57 C0 38.19 0 19.38 0 0 Z " fill="#5D5F64" transform="translate(820,661)"/>
<path d="M0 0 C2.46800047 1.15173355 4.04783565 2.04783565 6 4 C8.26793884 4.31243288 8.26793884 4.31243288 10.8125 4.375 C15.35744456 4.73623114 17.78612107 5.57877404 21 9 C22.76961098 12.53922195 22.03393444 16.27526723 21 20 C19.21129829 22.6258382 17.88810491 23.34201385 15 25 C11.37406589 25.49165208 9.17815762 25.69953109 6 23.8125 C4.57447621 21.22873812 5.2786916 19.81966013 6 17 C6.39906747 13.16895229 6.46984545 11.6264606 4.125 8.5 C3.073125 7.2625 3.073125 7.2625 2 6 C0.75 2.6875 0.75 2.6875 0 0 Z " fill="#04AEE4" transform="translate(522,365)"/>
<path d="M0 0 C2.31 0 4.62 0 7 0 C7 13.53 7 27.06 7 41 C4.69 41 2.38 41 0 41 C0 27.47 0 13.94 0 0 Z " fill="#64676B" transform="translate(725,678)"/>
<path d="M0 0 C10.2417658 -2.31552966 22.84437707 -4.45426488 32.27478027 1.41601562 C43.58503681 9.94595233 52.9415399 21.18950685 62 32 C61.01 33.65 60.02 35.3 59 37 C58.01 36.34 57.02 35.68 56 35 C56 34.34 56 33.68 56 33 C55.34 33 54.68 33 54 33 C54 32.34 54 31.68 54 31 C53.34 31 52.68 31 52 31 C50.5546875 29.56420898 50.5546875 29.56420898 48.875 27.55859375 C48.25109375 26.82753418 47.6271875 26.09647461 46.984375 25.34326172 C46.32953125 24.56998535 45.6746875 23.79670898 45 23 C35.24126186 10.54573676 35.24126186 10.54573676 21.45507812 4.46459961 C18.59865427 4.42623283 15.82751602 4.60077285 13 5 C13 4.67 13 4.34 13 4 C17.95 4 22.9 4 28 4 C28 3.01 28 2.02 28 1 C18.76 1 9.52 1 0 1 C0 0.67 0 0.34 0 0 Z " fill="#05AADB" transform="translate(467,312)"/>
<path d="M0 0 C8.91 0 17.82 0 27 0 C27 3.3 27 6.6 27 10 C18.09 10 9.18 10 0 10 C0 6.7 0 3.4 0 0 Z " fill="#13BCED" transform="translate(522,473)"/>
<path d="M0 0 C3.4375 1.1875 3.4375 1.1875 5.875 3.875 C7.58862245 7.50787959 8.17643512 9.24651268 7.4375 13.1875 C5.59408574 16.10567239 3.57545376 18.61852312 0.4375 20.1875 C-6.82989927 20.77358059 -6.82989927 20.77358059 -10.0625 18.1875 C-10.5575 17.5275 -11.0525 16.8675 -11.5625 16.1875 C-10.5725 16.1875 -9.5825 16.1875 -8.5625 16.1875 C-8.8925 15.1975 -9.2225 14.2075 -9.5625 13.1875 C-9.40732382 8.37703845 -9.19670583 6.10150253 -6.4375 2.125 C-3.5625 0.1875 -3.5625 0.1875 0 0 Z " fill="#12C3EF" transform="translate(689.5625,336.8125)"/>
<path d="M0 0 C0.48621272 7.17163759 0.48621272 7.17163759 -1.6875 10.875 C-5.21105438 14.11286078 -7.76736117 14.86793155 -12.5 15.375 C-16.66937699 14.92828104 -18.25753104 14.15799457 -21 11 C-21.6875 8.0625 -21.6875 8.0625 -21 5 C-15.93830856 -2.0556911 -7.82085764 -0.44775903 0 0 Z " fill="#F7F7F5" transform="translate(799,699)"/>
<path d="M0 0 C0.7826087 8.95652174 0.7826087 8.95652174 -2.25 13 C-6.54085601 16.12062256 -9.19294333 17.49578021 -14.6953125 17.40234375 C-19.19368877 16.61703399 -23.07670985 14.25106812 -27 12 C-25.824375 11.1028125 -25.824375 11.1028125 -24.625 10.1875 C-21.85425677 8.08914751 -21.85425677 8.08914751 -20 5 C-17.42578125 4.8828125 -17.42578125 4.8828125 -14.3125 5.125 C-8.22827017 5.31513218 -4.40450571 0 0 0 Z " fill="#F3F3F3" transform="translate(704,711)"/>
<path d="M0 0 C2.36810318 0.94724127 3.75207953 1.65291134 5.25 3.75 C6.24988087 6.74964262 6.37837202 8.84689983 6 12 C4.34976991 15.06471302 2.943924 17.30778907 0.125 19.375 C-2.84061755 20.24724046 -4.91925547 20.44010636 -8 20 C-10.875 17.5 -10.875 17.5 -13 15 C-12.34 15 -11.68 15 -11 15 C-10.87882813 14.28972656 -10.75765625 13.57945312 -10.6328125 12.84765625 C-10.46523438 11.92855469 -10.29765625 11.00945312 -10.125 10.0625 C-9.96257813 9.14597656 -9.80015625 8.22945313 -9.6328125 7.28515625 C-9.31957031 6.15400391 -9.31957031 6.15400391 -9 5 C-6.29120665 3.64560332 -3.99066732 3.93498549 -1 4 C-0.67 2.68 -0.34 1.36 0 0 Z " fill="#10BDEC" transform="translate(691,302)"/>
<path d="M0 0 C1.98 0 3.96 0 6 0 C6 13.2 6 26.4 6 40 C4.02 40 2.04 40 0 40 C0 26.8 0 13.6 0 0 Z " fill="#5B5C60" transform="translate(655,678)"/>
<path d="M0 0 C0.99 0 1.98 0 3 0 C3 0.66 3 1.32 3 2 C3.89291748 1.75419189 4.78583496 1.50838379 5.70581055 1.25512695 C9 1 9 1 11.40942383 2.56713867 C12.16763428 3.3429126 12.92584473 4.11868652 13.70703125 4.91796875 C14.54041016 5.76037109 15.37378906 6.60277344 16.23242188 7.47070312 C17.08384766 8.36724609 17.93527344 9.26378906 18.8125 10.1875 C20.11864258 11.50331055 20.11864258 11.50331055 21.45117188 12.84570312 C28.31352408 19.88991034 28.31352408 19.88991034 29 24 C31.09122477 28.28886899 31.09122477 28.28886899 34 32 C34.07205511 33.68608966 34.08386068 35.37500659 34.0625 37.0625 C34.05347656 37.98160156 34.04445313 38.90070313 34.03515625 39.84765625 C34.02355469 40.55792969 34.01195312 41.26820313 34 42 C33.01 42 32.02 42 31 42 C30.34 41.34 29.68 40.68 29 40 C29.19630376 38.39148115 29.43212347 36.78770339 29.6875 35.1875 C29.79198916 31.00243411 29.08164693 28.73451448 26.39453125 25.62890625 C23.10662231 22.22315111 19.58487553 19.08772667 16 16 C15.22011719 15.30777344 14.44023437 14.61554688 13.63671875 13.90234375 C12.3850489 12.80117528 11.12523623 11.7091562 9.85546875 10.62890625 C6.40620043 7.60081175 3.10254123 4.38309017 0 1 C0 0.67 0 0.34 0 0 Z " fill="#04B6E9" transform="translate(495,344)"/>
<path d="M0 0 C4.36657226 4.36657226 3.31678988 12.16335328 3.51757812 18.02539062 C3.55291251 22.48236277 3.55291251 22.48236277 6 26 C8.68839385 26.26991906 11.29141936 26.08737357 14 26 C14.33 27.98 14.66 29.96 15 32 C12.13177682 32.95607439 10.05755254 33.22692707 7.0625 33.3125 C5.78052734 33.36857422 5.78052734 33.36857422 4.47265625 33.42578125 C1.10847137 32.84648243 0.10655992 31.65535761 -2 29 C-2.48583984 26.09912109 -2.48583984 26.09912109 -2.4609375 22.7734375 C-2.45707031 21.5771875 -2.45320312 20.3809375 -2.44921875 19.1484375 C-2.42472656 17.90320313 -2.40023437 16.65796875 -2.375 15.375 C-2.37371094 14.12203125 -2.37242187 12.8690625 -2.37109375 11.578125 C-2.2807303 2.2807303 -2.2807303 2.2807303 0 0 Z " fill="#626367" transform="translate(750,686)"/>
<path d="M0 0 C0.33 0 0.66 0 1 0 C1 1.98 1 3.96 1 6 C-4.94 6.495 -4.94 6.495 -11 7 C-11 7.99 -11 8.98 -11 10 C-11.94875 10.45375 -12.8975 10.9075 -13.875 11.375 C-17.00313679 12.80238254 -17.00313679 12.80238254 -19 15 C-19.50042146 17.91538029 -19.50042146 17.91538029 -19 21 C-17.12498069 23.37719693 -17.12498069 23.37719693 -15 25 C-16.98 25.99 -16.98 25.99 -19 27 C-19 27.66 -19 28.32 -19 29 C-15.37 29.33 -11.74 29.66 -8 30 C-8 30.33 -8 30.66 -8 31 C-13.72976937 31.34378616 -18.11251817 31.40987104 -23 28 C-25.86985359 24.7525341 -27.25126393 22.22902681 -27.4375 17.9375 C-26.98189114 13.83702025 -26.71862708 12.05845546 -24 9 C-16.62890569 3.65234335 -8.7134869 4.61931368 0 5 C0 3.35 0 1.7 0 0 Z " fill="#6E6E71" transform="translate(798,689)"/>
<path d="M0 0 C2.5625 1.9375 2.5625 1.9375 5 5 C5.50707682 9.45276832 4.8122917 12.9169444 2.125 16.5 C-1.84440771 19.30193485 -5.27880482 19.08907915 -10 19 C-9.79375 18.05125 -9.5875 17.1025 -9.375 16.125 C-9.25125 15.09375 -9.1275 14.0625 -9 13 C-9.66 12.34 -10.32 11.68 -11 11 C-11.36487512 8.15397406 -11.40199375 6.6135694 -9.8125 4.1875 C-7.41628976 2.61756915 -5.80951486 2.70426159 -3 3 C-2.67 3.33 -2.34 3.66 -2 4 C-1.34 2.68 -0.68 1.36 0 0 Z " fill="#11C0F1" transform="translate(692,376)"/>
<path d="M0 0 C8.58 0 17.16 0 26 0 C26 2.64 26 5.28 26 8 C17.42 8 8.84 8 0 8 C0 5.36 0 2.72 0 0 Z " fill="#838790" transform="translate(523,273)"/>
<path d="M0 0 C0 2.97 0 5.94 0 9 C-1.43554025 9.50559908 -2.8735202 10.0042749 -4.3125 10.5 C-5.11300781 10.7784375 -5.91351563 11.056875 -6.73828125 11.34375 C-9 12 -9 12 -12 12 C-13.6875 10.9375 -13.6875 10.9375 -15 9 C-15.1875 5.3125 -15.1875 5.3125 -15 2 C-17.31 2 -19.62 2 -22 2 C-22 14.87 -22 27.74 -22 41 C-19.36 41 -16.72 41 -14 41 C-14 33.08 -14 25.16 -14 17 C-13.67 17 -13.34 17 -13 17 C-13 25.25 -13 33.5 -13 42 C-16.3 42 -19.6 42 -23 42 C-23 28.47 -23 14.94 -23 1 C-20.03 1 -17.06 1 -14 1 C-13.67 2.98 -13.34 4.96 -13 7 C-12.13375 5.824375 -12.13375 5.824375 -11.25 4.625 C-7.74674144 0.53786501 -5.33325582 -0.29629199 0 0 Z " fill="#3A3747" transform="translate(490,677)"/>
<path d="M0 0 C2.1875 0.5625 2.1875 0.5625 4 2 C5.25 4.125 5.25 4.125 6 6 C0.55128053 10.67033097 -3.42579794 12.28309978 -10.625 12.25 C-11.75164063 12.25515625 -12.87828125 12.2603125 -14.0390625 12.265625 C-17 12 -17 12 -20 10 C-19.34 10 -18.68 10 -18 10 C-17.79913557 6.28400809 -17.8480563 5.22791555 -20 2 C-17 2 -17 2 -15 3 C-8.99012294 3.55312143 -5.12792144 3.31806681 0 0 Z " fill="#22202F" transform="translate(574,707)"/>
<path d="M0 0 C2.9375 2 2.9375 2 5 4 C4.67 4.99 4.34 5.98 4 7 C0 7 0 7 -2.625 6.4375 C-5.0065104 5.75248427 -5.0065104 5.75248427 -7 7 C-7.04254356 8.99954746 -7.04080783 11.00041636 -7 13 C-6.01732141 14.20561184 -6.01732141 14.20561184 -4.15234375 14.09765625 C-2.1015625 14.06510417 -0.05078125 14.03255208 2 14 C2 14.66 2 15.32 2 16 C1.34 16 0.68 16 0 16 C0 17.32 0 18.64 0 20 C-7.24101736 20.61364554 -7.24101736 20.61364554 -10.9375 17.625 C-13.91206287 13.83919272 -14.47335226 11.82819303 -14 7 C-10.18902042 1.21782408 -6.95350344 -0.71932794 0 0 Z " fill="#03B8EA" transform="translate(535,302)"/>
<path d="M0 0 C1.06605469 0.01546875 2.13210938 0.0309375 3.23046875 0.046875 C5.8125 0.25 5.8125 0.25 6.8125 1.25 C7.26851889 5.27816683 7.45556166 7.41401984 4.9375 10.6875 C0.62609858 12.84320071 -3.43845164 12.972864 -8.1875 12.25 C-10.1875 10.25 -10.1875 10.25 -10.5625 6.8125 C-10.1875 3.25 -10.1875 3.25 -8.55078125 1.54296875 C-5.53061044 -0.10938916 -3.42435357 -0.08341909 0 0 Z " fill="#F1F0F1" transform="translate(303.1875,699.75)"/>
<path d="M0 0 C1.30517578 0.10441406 1.30517578 0.10441406 2.63671875 0.2109375 C3.51972656 0.26507813 4.40273438 0.31921875 5.3125 0.375 C5.97636719 0.44460938 6.64023437 0.51421875 7.32421875 0.5859375 C6.99421875 2.2359375 6.66421875 3.8859375 6.32421875 5.5859375 C3.68421875 5.9159375 1.04421875 6.2459375 -1.67578125 6.5859375 C-2.33578125 9.8859375 -2.99578125 13.1859375 -3.67578125 16.5859375 C-4.66578125 16.5859375 -5.65578125 16.5859375 -6.67578125 16.5859375 C-7.17078125 15.1009375 -7.17078125 15.1009375 -7.67578125 13.5859375 C-10.97578125 13.2559375 -14.27578125 12.9259375 -17.67578125 12.5859375 C-16.68578125 12.2559375 -15.69578125 11.9259375 -14.67578125 11.5859375 C-14.67578125 10.5959375 -14.67578125 9.6059375 -14.67578125 8.5859375 C-25.23578125 8.5859375 -35.79578125 8.5859375 -46.67578125 8.5859375 C-46.67578125 8.2559375 -46.67578125 7.9259375 -46.67578125 7.5859375 C-45.52053955 7.58706543 -44.36529785 7.58819336 -43.17504883 7.58935547 C-38.87881654 7.58567765 -34.58370463 7.54282708 -30.2878418 7.48828125 C-28.43049342 7.47014024 -26.57301026 7.46254932 -24.71557617 7.46582031 C-22.04109815 7.46868301 -19.36940429 7.43331461 -16.6953125 7.390625 C-15.45440605 7.4042659 -15.45440605 7.4042659 -14.18843079 7.41818237 C-9.78264851 7.36681057 -9.78264851 7.36681057 -6.09977722 5.21743774 C-2.31978073 0.50798118 -2.31978073 0.50798118 0 0 Z " fill="#09B4E4" transform="translate(683.67578125,300.4140625)"/>
<path d="M0 0 C-0.66 0.61875 -1.32 1.2375 -2 1.875 C-4.2284549 3.75637427 -4.2284549 3.75637427 -4 6 C-3.34 6.66 -2.68 7.32 -2 8 C-2.99 8.495 -2.99 8.495 -4 9 C-4.53625 8.690625 -5.0725 8.38125 -5.625 8.0625 C-9.06043567 6.52559457 -12.28780434 6.59349924 -16 7 C-17.3479743 7.63654342 -18.68596724 8.29605388 -20 9 C-22.25 8.625 -22.25 8.625 -24 8 C-24.33 6.02 -24.66 4.04 -25 2 C-16.78733273 -2.54231474 -8.76694906 -3.9419735 0 0 Z " fill="#1E1D2D" transform="translate(312,679)"/>
<path d="M0 0 C2.375 1.5625 2.375 1.5625 4 4 C4.5625 7.5 4.5625 7.5 4 11 C1.58140437 13.69500656 -0.00763965 14.80636871 -3.5625 15.5 C-6.96311101 14.80243877 -8.05445623 13.88228706 -10 11 C-10.59002965 8.03793195 -10.39336407 6.09774206 -10 3 C-7.21052771 -0.43319666 -4.246332 -0.61925675 0 0 Z " fill="#F5F5F6" transform="translate(527,580)"/>
<path d="M0 0 C2.5 0.75 2.5 0.75 5.5 2.75 C5.83 1.76 6.16 0.77 6.5 -0.25 C7.16 -0.25 7.82 -0.25 8.5 -0.25 C9.94414385 2.63828771 9.47280874 5.28041489 9.33984375 8.4609375 C9.51877728 11.01837766 10.33626616 12.49731039 11.5 14.75 C11.125 17.5 11.125 17.5 10.5 19.75 C8.7925002 18.46937515 7.12626404 17.13232443 5.5 15.75 C5.5 15.09 5.5 14.43 5.5 13.75 C4.51 13.75 3.52 13.75 2.5 13.75 C2.5 12.76 2.5 11.77 2.5 10.75 C3.16 10.75 3.82 10.75 4.5 10.75 C4.5 10.09 4.5 9.43 4.5 8.75 C3.22125 8.95625 1.9425 9.1625 0.625 9.375 C-1.5546875 9.7265625 -1.5546875 9.7265625 -3.5 9.75 C-5.5 7.75 -5.5 7.75 -5.8125 4.75 C-5.709375 3.76 -5.60625 2.77 -5.5 1.75 C-2.5 -0.25 -2.5 -0.25 0 0 Z " fill="#05ABDC" transform="translate(532.5,307.25)"/>
<path d="M0 0 C3.00235838 0.53981797 4.6979735 1.24752814 6.93359375 3.34765625 C7.26359375 5.65765625 7.59359375 7.96765625 7.93359375 10.34765625 C1.33359375 10.34765625 -5.26640625 10.34765625 -12.06640625 10.34765625 C-10.60620071 3.04662855 -7.53760259 -0.55570227 0 0 Z " fill="#F1F1F3" transform="translate(565.06640625,684.65234375)"/>
<path d="M0 0 C4.3601282 0.11831427 8.72003451 0.24256713 13.07983398 0.37231445 C14.56286015 0.4156133 16.04593454 0.45729199 17.52905273 0.49731445 C19.66144339 0.55513958 21.79359242 0.61879832 23.92578125 0.68359375 C25.20880127 0.72025146 26.49182129 0.75690918 27.8137207 0.79467773 C31 1 31 1 34 2 C33.67 2.99 33.34 3.98 33 5 C29.46173745 6.17942085 26.65851274 6.11289189 22.92578125 6.09765625 C21.90003242 6.09553383 21.90003242 6.09553383 20.8535614 6.09336853 C18.67316278 6.08777876 16.49286749 6.07522822 14.3125 6.0625 C12.83268378 6.05748367 11.35286594 6.052921 9.87304688 6.04882812 C6.24866443 6.03781271 2.6243423 6.02055512 -1 6 C-1 2 -1 2 0 0 Z " fill="#03B3EA" transform="translate(638,381)"/>
<path d="M0 0 C2.875 0.375 2.875 0.375 4.875 2.375 C5.03515625 4.46875 5.03515625 4.46875 4.9375 6.875 C4.7550954 10.25707958 4.7550954 10.25707958 5.875 13.375 C2.37182906 15.12658547 -1.31194726 15.0587198 -5.125 14.375 C-8.1875 11.8125 -8.1875 11.8125 -10.125 8.375 C-10.4375 4.5 -10.4375 4.5 -10.125 1.375 C-9.135 2.365 -8.145 3.355 -7.125 4.375 C-6.58875 3.715 -6.0525 3.055 -5.5 2.375 C-3.125 0.375 -3.125 0.375 0 0 Z " fill="#08B4E6" transform="translate(457.125,309.625)"/>
<path d="M0 0 C4.50551411 0.38618692 7.49727164 2.21373881 11 5 C12.125 6.9375 12.125 6.9375 12 9 C10.0625 11.75 10.0625 11.75 8 14 C4 12 0 10 -4 8 C-1.125 1.125 -1.125 1.125 0 0 Z " fill="#232535" transform="translate(232,665)"/>
<path d="M0 0 C0.99 0 1.98 0 3 0 C3 0.66 3 1.32 3 2 C3.83789062 1.69191406 4.67578125 1.38382812 5.5390625 1.06640625 C9.51827803 0.99005561 9.88457658 1.36006978 12.6484375 3.96484375 C13.90886754 5.27171069 15.15061128 6.59680714 16.375 7.9375 C17.01566406 8.60974609 17.65632812 9.28199219 18.31640625 9.97460938 C19.89448501 11.63512508 21.45399634 13.30967306 23 15 C22.34 15.66 21.68 16.32 21 17 C20.236875 16.505 19.47375 16.01 18.6875 15.5 C16.07636249 13.75631692 16.07636249 13.75631692 13 14 C11.46606445 12.82250977 11.46606445 12.82250977 9.86328125 11.19140625 C9.28642578 10.60939453 8.70957031 10.02738281 8.11523438 9.42773438 C7.52033203 8.81220703 6.92542969 8.19667969 6.3125 7.5625 C5.70599609 6.95083984 5.09949219 6.33917969 4.47460938 5.70898438 C0 1.1538421 0 1.1538421 0 0 Z " fill="#06A9D9" transform="translate(495,344)"/>
<path d="M0 0 C0.721875 0.12375 1.44375 0.2475 2.1875 0.375 C1.548125 0.973125 0.90875 1.57125 0.25 2.1875 C-2.68389517 6.72170163 -2.62680312 11.07335408 -2.8125 16.375 C-4.1325 16.375 -5.4525 16.375 -6.8125 16.375 C-7.1425 15.385 -7.4725 14.395 -7.8125 13.375 C-10.1225 13.045 -12.4325 12.715 -14.8125 12.375 C-13.8225 11.385 -12.8325 10.395 -11.8125 9.375 C-12.8025 8.715 -13.7925 8.055 -14.8125 7.375 C-13.760625 7.33375 -12.70875 7.2925 -11.625 7.25 C-7.53187661 6.31113958 -7.53187661 6.31113958 -5.1875 3.3125 C-2.8125 0.375 -2.8125 0.375 0 0 Z " fill="#0BBCEA" transform="translate(683.8125,336.625)"/>
<path d="M0 0 C2.93230193 1.32120828 4.98664899 2.74638197 7.234375 5.0390625 C8.09482422 5.90917969 8.09482422 5.90917969 8.97265625 6.796875 C9.55917969 7.40015625 10.14570312 8.0034375 10.75 8.625 C11.35199219 9.23601562 11.95398438 9.84703125 12.57421875 10.4765625 C14.05405305 11.97988624 15.52764676 13.48934856 17 15 C16.01 16.65 15.02 18.3 14 20 C13.01 19.34 12.02 18.68 11 18 C11 17.34 11 16.68 11 16 C10.34 16 9.68 16 9 16 C9 15.34 9 14.68 9 14 C8.34 14 7.68 14 7 14 C4.98962658 11.82879671 4.07046726 10.36114471 3.5 7.4375 C2.92594589 4.63898622 2.05671647 3.87787156 0 2 C0 1.34 0 0.68 0 0 Z " fill="#05A3D2" transform="translate(512,329)"/>
<path d="M0 0 C0.185625 1.11375 0.37125 2.2275 0.5625 3.375 C1.036875 4.57125 1.51125 5.7675 2 7 C5.51400668 8.54086322 5.51400668 8.54086322 9 9 C8.67 10.32 8.34 11.64 8 13 C5.07013677 13.29795219 2.85647239 13.50687865 0 13 C-3.47568903 9.9587721 -4.88360015 8.25711841 -5.3125 3.625 C-5.209375 2.75875 -5.10625 1.8925 -5 1 C-3 0 -3 0 0 0 Z " fill="#05B7EA" transform="translate(423,335)"/>
<path d="M0 0 C2 2 2 2 2.3125 4.9375 C2 8 2 8 0.8125 9.9375 C-1 11 -1 11 -3.5625 10.8125 C-6 10 -6 10 -8 8 C-8.36487512 5.15397406 -8.40199375 3.6135694 -6.8125 1.1875 C-4.3864306 -0.40199375 -2.84602594 -0.36487512 0 0 Z " fill="#E7FAFC" transform="translate(689,379)"/>
<path d="M0 0 C2 2 2 2 2.25 5 C2 8 2 8 0 10 C-3 10.25 -3 10.25 -6 10 C-6.66 9.34 -7.32 8.68 -8 8 C-7.75 4.4375 -7.75 4.4375 -7 1 C-4.48718205 -0.25640898 -2.78302919 -0.20872719 0 0 Z " fill="#F2FDFD" transform="translate(689,306)"/>
<path d="M0 0 C3 -0.3125 3 -0.3125 6 0 C8 2 8 2 8.25 5 C8 8 8 8 6 10 C2.375 9.625 2.375 9.625 -1 9 C-1.625 6.1875 -1.625 6.1875 -2 3 C-1.34 2.01 -0.68 1.02 0 0 Z " fill="#EEFBFC" transform="translate(683,342)"/>
<path d="M0 0 C2.5625 0.3125 2.5625 0.3125 4.375 1.5 C5.96449375 3.9260694 5.92737512 5.46647406 5.5625 8.3125 C3.5625 10.3125 3.5625 10.3125 0.5625 10.5625 C-2.4375 10.3125 -2.4375 10.3125 -4.4375 8.3125 C-4.6875 5.3125 -4.6875 5.3125 -4.4375 2.3125 C-2.4375 0.3125 -2.4375 0.3125 0 0 Z " fill="#192531" transform="translate(427.4375,332.6875)"/>
<path d="M0 0 C-0.66 0.61875 -1.32 1.2375 -2 1.875 C-4.2284549 3.75637427 -4.2284549 3.75637427 -4 6 C-3.34 6.66 -2.68 7.32 -2 8 C-2.99 8.495 -2.99 8.495 -4 9 C-6.03144641 8.06553465 -8.03533587 7.06775224 -10 6 C-8.125 1.25 -8.125 1.25 -7 -1 C-11.0504172 -0.75296333 -11.0504172 -0.75296333 -15 0 C-16.3762794 1.91764174 -16.3762794 1.91764174 -17 4 C-17.99 4.33 -18.98 4.66 -20 5 C-20.33 4.01 -20.66 3.02 -21 2 C-22.32 2.33 -23.64 2.66 -25 3 C-19.22190991 -4.06211011 -7.61436503 -3.46983723 0 0 Z " fill="#222132" transform="translate(312,679)"/>
<path d="M0 0 C0.99 0.103125 1.98 0.20625 3 0.3125 C5 3.3125 5 3.3125 4.75 5.875 C4 8.3125 4 8.3125 2 10.3125 C-1.29714793 9.98278521 -2.6226839 9.6898161 -5 7.3125 C-5.25 4.8125 -5.25 4.8125 -5 2.3125 C-3 0.3125 -3 0.3125 0 0 Z " fill="#1D2A36" transform="translate(534,374.6875)"/>
<path d="M0 0 C0.68835938 0.50660156 0.68835938 0.50660156 1.390625 1.0234375 C5.20409059 3.81358485 5.20409059 3.81358485 9.3125 6.125 C12.41583594 7.73413715 13.50095119 11.00190239 15 14 C15.99 15.485 15.99 15.485 17 17 C16.34 17.66 15.68 18.32 15 19 C12.4837673 16.59976384 9.99011349 14.17729982 7.5 11.75 C6.78457031 11.06808594 6.06914062 10.38617188 5.33203125 9.68359375 C4.65527344 9.01972656 3.97851562 8.35585938 3.28125 7.671875 C2.65283203 7.0644043 2.02441406 6.45693359 1.37695312 5.83105469 C0 4 0 4 0 0 Z " fill="#05B7EB" transform="translate(500,319)"/>
<path d="M0 0 C3 0.25 3 0.25 5 2.25 C5.25 4.75 5.25 4.75 5 7.25 C3 9.25 3 9.25 0 9.5 C-3 9.25 -3 9.25 -5 7.25 C-5.25 4.75 -5.25 4.75 -5 2.25 C-3 0.25 -3 0.25 0 0 Z " fill="#1B2533" transform="translate(457,309.75)"/>
<path d="M0 0 C2.375 0.6875 2.375 0.6875 3.375 1.6875 C3.5625 4.625 3.5625 4.625 3.375 7.6875 C1.375 9.6875 1.375 9.6875 -1.125 9.9375 C-3.625 9.6875 -3.625 9.6875 -5.625 7.6875 C-5.9375 4.6875 -5.9375 4.6875 -5.625 1.6875 C-2.625 -0.3125 -2.625 -0.3125 0 0 Z " fill="#1D2736" transform="translate(532.625,307.3125)"/>
<path d="M0 0 C0 3.3 0 6.6 0 10 C-2.31 10 -4.62 10 -7 10 C-7.33 9.01 -7.66 8.02 -8 7 C-7.34 7 -6.68 7 -6 7 C-6.66 6.34 -7.32 5.68 -8 5 C-8.66 4.34 -9.32 3.68 -10 3 C-6.27034861 0.96564469 -4.33094958 0 0 0 Z " fill="#272632" transform="translate(279,677)"/>
<path d="M0 0 C2.5 0.25 2.5 0.25 4.5 2.25 C4.75 4.75 4.75 4.75 4.5 7.25 C2.5 9.25 2.5 9.25 0 9.5 C-2.5 9.25 -2.5 9.25 -4.5 7.25 C-4.75 4.75 -4.75 4.75 -4.5 2.25 C-2.5 0.25 -2.5 0.25 0 0 Z " fill="#696B6E" transform="translate(657.5,660.75)"/>
<path d="M0 0 C0.33 0 0.66 0 1 0 C1.36630156 3.93774177 1.30233203 5.56539771 -1 8.875 C-1.66 9.57625 -2.32 10.2775 -3 11 C-2.01 11.33 -1.02 11.66 0 12 C-2.88861709 13.44430855 -4.79647701 13.37688506 -8 13 C-10.875 10.5 -10.875 10.5 -13 8 C-12.34 8 -11.68 8 -11 8 C-11 7.01 -11 6.02 -11 5 C-8.03 5.33 -5.06 5.66 -2 6 C-1.34 4.02 -0.68 2.04 0 0 Z " fill="#18C8EE" transform="translate(691,309)"/>
<path d="M0 0 C1.2375 0.1546875 1.2375 0.1546875 2.5 0.3125 C4.5 3.3125 4.5 3.3125 4.25 5.375 C3.5 7.3125 3.5 7.3125 1.5 9.3125 C-3.05555556 8.75694444 -3.05555556 8.75694444 -4.5 7.3125 C-4.6875 4.875 -4.6875 4.875 -4.5 2.3125 C-2.5 0.3125 -2.5 0.3125 0 0 Z " fill="#65686B" transform="translate(728.5,660.6875)"/>
<path d="M0 0 C1.28132812 0.10183594 2.56265625 0.20367188 3.8828125 0.30859375 C4.87023437 0.39238281 5.85765625 0.47617187 6.875 0.5625 C6.875 1.5525 6.875 2.5425 6.875 3.5625 C4.06272378 4.49992541 2.28753156 4.69720844 -0.625 4.6875 C-1.3984375 4.69007813 -2.171875 4.69265625 -2.96875 4.6953125 C-5.125 4.5625 -5.125 4.5625 -8.125 3.5625 C-8.455 2.5725 -8.785 1.5825 -9.125 0.5625 C-6.07230154 -0.96384923 -3.36654311 -0.27544444 0 0 Z " fill="#5C5E63" transform="translate(787.125,714.4375)"/>
<path d="M0 0 C0.33 0 0.66 0 1 0 C1 1.65 1 3.3 1 5 C-2.21341369 6.60670684 -5.62958968 5.82510855 -9.125 5.5625 C-10.25615234 5.48418945 -10.25615234 5.48418945 -11.41015625 5.40429688 C-13.2737937 5.27454996 -15.13694996 5.13792512 -17 5 C-16.33131686 8.11332248 -16.33131686 8.11332248 -13.9375 9.1875 C-13.298125 9.455625 -12.65875 9.72375 -12 10 C-14.64 10 -17.28 10 -20 10 C-20.33 11.32 -20.66 12.64 -21 14 C-21 10.04 -21 6.08 -21 2 C-20.67 2.66 -20.34 3.32 -20 4 C-13.4 4 -6.8 4 0 4 C0 2.68 0 1.36 0 0 Z " fill="#312E3F" transform="translate(573,691)"/>
<path d="M0 0 C5.21979128 -0.1799928 9.07262981 0.02905192 14 2 C13.01 3.98 12.02 5.96 11 8 C8.36 7.34 5.72 6.68 3 6 C3.66 5.67 4.32 5.34 5 5 C5 3.68 5 2.36 5 1 C3.35 1 1.7 1 0 1 C0 0.67 0 0.34 0 0 Z " fill="#76777B" transform="translate(785,677)"/>
<path d="M0 0 C0.99 0 1.98 0 3 0 C3 0.66 3 1.32 3 2 C4.98 1.67 6.96 1.34 9 1 C9.99 2.32 10.98 3.64 12 5 C9 5 9 5 7 4 C7 4.66 7 5.32 7 6 C8.32 6.66 9.64 7.32 11 8 C11 8.66 11 9.32 11 10 C12.32 10.66 13.64 11.32 15 12 C14.67 12.99 14.34 13.98 14 15 C11.66265901 12.69152056 9.33081534 10.37756659 7 8.0625 C6.33226562 7.40314453 5.66453125 6.74378906 4.9765625 6.06445312 C4.34492188 5.43603516 3.71328125 4.80761719 3.0625 4.16015625 C2.47597656 3.57886963 1.88945312 2.99758301 1.28515625 2.39868164 C0 1 0 1 0 0 Z " fill="#059ECD" transform="translate(495,344)"/>
<path d="M0 0 C0 0.99 0 1.98 0 3 C1.32 3 2.64 3 4 3 C4 4.98 4 6.96 4 9 C3.67 7.68 3.34 6.36 3 5 C0.69 6.32 -1.62 7.64 -4 9 C-4 8.01 -4 7.02 -4 6 C-4.66 5.67 -5.32 5.34 -6 5 C-5.67 4.34 -5.34 3.68 -5 3 C-6.65 3 -8.3 3 -10 3 C-10 2.67 -10 2.34 -10 2 C-8.7090864 1.66376204 -7.41723903 1.33110751 -6.125 1 C-5.40570312 0.814375 -4.68640625 0.62875 -3.9453125 0.4375 C-2 0 -2 0 0 0 Z " fill="#353347" transform="translate(522,707)"/>
<path d="M0 0 C4.2742558 1.5830577 6.26531794 4.50568404 9 8 C8.01 8.66 7.02 9.32 6 10 C5.34 9.67 4.68 9.34 4 9 C4 8.34 4 7.68 4 7 C2.35 6.67 0.7 6.34 -1 6 C-1.042721 4.33388095 -1.04063832 2.66617115 -1 1 C-0.67 0.67 -0.34 0.34 0 0 Z " fill="#0BBCEB" transform="translate(494,337)"/>
<path d="M0 0 C3.45201639 1.47721422 5.64961936 3.43794001 8.25 6.125 C8.95640625 6.84945313 9.6628125 7.57390625 10.390625 8.3203125 C11.18726563 9.15175781 11.18726563 9.15175781 12 10 C11.67 10.99 11.34 11.98 11 13 C10.46890625 12.41089844 9.9378125 11.82179688 9.390625 11.21484375 C8.68421875 10.46332031 7.9778125 9.71179688 7.25 8.9375 C6.55390625 8.18339844 5.8578125 7.42929687 5.140625 6.65234375 C3.14710686 4.71763112 3.14710686 4.71763112 0.734375 5.25390625 C-0.12414062 5.62322266 -0.12414062 5.62322266 -1 6 C-1.33 5.01 -1.66 4.02 -2 3 C-1.34 3 -0.68 3 0 3 C0 2.01 0 1.02 0 0 Z " fill="#07A5D8" transform="translate(620,363)"/>
<path d="M0 0 C1.32 0.66 2.64 1.32 4 2 C3.67 2.99 3.34 3.98 3 5 C3.87483915 7.16715557 3.87483915 7.16715557 5 9 C4.01 9.495 4.01 9.495 3 10 C2.34 9.67 1.68 9.34 1 9 C-0.53668865 8.77532169 -2.07968054 8.59203195 -3.625 8.4375 C-4.44226563 8.35371094 -5.25953125 8.26992188 -6.1015625 8.18359375 C-6.72804688 8.12300781 -7.35453125 8.06242188 -8 8 C-8 7.67 -8 7.34 -8 7 C-6.02 7 -4.04 7 -2 7 C-1.34 4.69 -0.68 2.38 0 0 Z " fill="#3B394A" transform="translate(518,678)"/>
<path d="M0 0 C4.875 2.75 4.875 2.75 6 5 C5.06553465 7.03144641 4.06775224 9.03533587 3 11 C2.79375 10.38125 2.5875 9.7625 2.375 9.125 C0.45224112 6.15346355 -1.66594527 5.86975341 -5 5 C-3.35 3.35 -1.7 1.7 0 0 Z " fill="#06B0E2" transform="translate(460,305)"/>
<path d="M0 0 C0.33 0.66 0.66 1.32 1 2 C2.32 2 3.64 2 5 2 C5 4.97 5 7.94 5 11 C4.67 11 4.34 11 4 11 C3.67 8.69 3.34 6.38 3 4 C2.01 4.66 1.02 5.32 0 6 C-0.33 5.34 -0.66 4.68 -1 4 C-2.11375 4.309375 -2.11375 4.309375 -3.25 4.625 C-6 5 -6 5 -10 3 C-5.05 1.515 -5.05 1.515 0 0 Z " fill="#797A80" transform="translate(700,708)"/>
<path d="M0 0 C0 0.33 0 0.66 0 1 C-0.69867188 1.02578125 -1.39734375 1.0515625 -2.1171875 1.078125 C-3.02726562 1.13484375 -3.93734375 1.1915625 -4.875 1.25 C-5.77992188 1.29640625 -6.68484375 1.3428125 -7.6171875 1.390625 C-8.40351563 1.59171875 -9.18984375 1.7928125 -10 2 C-11.16361518 3.95215345 -11.16361518 3.95215345 -12 6 C-12.99 6.33 -13.98 6.66 -15 7 C-15.33 6.01 -15.66 5.02 -16 4 C-17.32 4.33 -18.64 4.66 -20 5 C-14.947844 -1.17485733 -7.23994135 -0.23188424 0 0 Z " fill="#4D4C58" transform="translate(307,677)"/>
<path d="M0 0 C1.7074998 1.28062485 3.37373596 2.61767557 5 4 C5 4.66 5 5.32 5 6 C5.66 6.33 6.32 6.66 7 7 C6.67 7.66 6.34 8.32 6 9 C4.35 8.67 2.7 8.34 1 8 C0.26919734 6.02253397 -0.39421747 4.01927511 -1 2 C-0.67 1.34 -0.34 0.68 0 0 Z " fill="#03AEDB" transform="translate(556,357)"/>
<path d="M0 0 C2.31 0 4.62 0 7 0 C7 1.32 7 2.64 7 4 C8.98 4 10.96 4 13 4 C13 4.33 13 4.66 13 5 C9.7 5 6.4 5 3 5 C2.67 4.01 2.34 3.02 2 2 C1.34 2 0.68 2 0 2 C0 1.34 0 0.68 0 0 Z " fill="#251F35" transform="translate(294,695)"/>
<path d="M0 0 C2 2 2 2 2.125 4.625 C2.08375 5.40875 2.0425 6.1925 2 7 C0.68 7.33 -0.64 7.66 -2 8 C-4 5 -4 5 -4 2 C-2.68 1.34 -1.36 0.68 0 0 Z " fill="#282634" transform="translate(291,680)"/>
<path d="M0 0 C0.99 0.33 1.98 0.66 3 1 C2.34 1 1.68 1 1 1 C0.34 2.65 -0.32 4.3 -1 6 C0.32 6 1.64 6 3 6 C2.67 7.32 2.34 8.64 2 10 C0.02 9.34 -1.96 8.68 -4 8 C-1.125 1.125 -1.125 1.125 0 0 Z " fill="#2A293C" transform="translate(232,665)"/>
<path d="M0 0 C2.0625 1.625 2.0625 1.625 4 4 C3.75 7.25 3.75 7.25 3 10 C1.35 8.35 -0.3 6.7 -2 5 C-1.34 3.35 -0.68 1.7 0 0 Z " fill="#069AC7" transform="translate(540,317)"/>
<path d="M0 0 C1.32 0.33 2.64 0.66 4 1 C4 2.32 4 3.64 4 5 C2.68 5.33 1.36 5.66 0 6 C-0.66 5.01 -1.32 4.02 -2 3 C-1.34 2.01 -0.68 1.02 0 0 Z " fill="#5D5F63" transform="translate(676,723)"/>
<path d="M0 0 C3.3 0 6.6 0 10 0 C10 1.32 10 2.64 10 4 C8.02 4 6.04 4 4 4 C3.67 3.34 3.34 2.68 3 2 C2.01 1.34 1.02 0.68 0 0 Z " fill="#747679" transform="translate(754,678)"/>
<path d="M0 0 C2.875 0.25 2.875 0.25 6 1 C7.25 2.875 7.25 2.875 8 5 C8.99 6.485 8.99 6.485 10 8 C7 8 7 8 5.17578125 6.50390625 C4.56089844 5.86324219 3.94601562 5.22257812 3.3125 4.5625 C2.68988281 3.92441406 2.06726563 3.28632813 1.42578125 2.62890625 C0 1 0 1 0 0 Z " fill="#1A2234" transform="translate(550,350)"/>
<path d="M0 0 C0.79664063 0.49113281 0.79664063 0.49113281 1.609375 0.9921875 C4.62694157 2.2642989 6.98693023 2.1959363 10.25 2.125 C11.86648438 2.09792969 11.86648438 2.09792969 13.515625 2.0703125 C14.33546875 2.04710937 15.1553125 2.02390625 16 2 C15.67 2.99 15.34 3.98 15 5 C3.29384966 5.55353075 3.29384966 5.55353075 -1 2 C-0.67 1.34 -0.34 0.68 0 0 Z " fill="#413E4D" transform="translate(555,708)"/>
<path d="M0 0 C2.97 0 5.94 0 9 0 C9.33 1.98 9.66 3.96 10 6 C10.99 5.01 11.98 4.02 13 3 C12.34 4.98 11.68 6.96 11 9 C10.01 8.67 9.02 8.34 8 8 C8 5.69 8 3.38 8 1 C5.36 1 2.72 1 0 1 C0 0.67 0 0.34 0 0 Z " fill="#494758" transform="translate(256,678)"/>
<path d="M0 0 C0.99 0.33 1.98 0.66 3 1 C1.88200014 2.33920838 0.75538103 3.67122556 -0.375 5 C-1.00148438 5.7425 -1.62796875 6.485 -2.2734375 7.25 C-3.12808594 8.11625 -3.12808594 8.11625 -4 9 C-4.66 9 -5.32 9 -6 9 C-4.47291037 5.56404834 -2.40072955 2.88087546 0 0 Z " fill="#676D75" transform="translate(637,705)"/>
<path d="M0 0 C1.04478472 3.39555034 1.30152754 6.45705143 1 10 C-0.5 11.875 -0.5 11.875 -2 13 C-2.19294408 8.17639811 -1.75747614 4.50353262 0 0 Z " fill="#CACBCE" transform="translate(206,682)"/>
<path d="M0 0 C0.33 0.99 0.66 1.98 1 3 C0.34 3 -0.32 3 -1 3 C-0.67 4.32 -0.34 5.64 0 7 C-2.475 8.485 -2.475 8.485 -5 10 C-4.300926 6.22500037 -2.74803773 2.74803773 0 0 Z " fill="#221F30" transform="translate(272,681)"/>
<path d="M0 0 C2.97 0 5.94 0 9 0 C9 0.33 9 0.66 9 1 C7.02 1 5.04 1 3 1 C2.731875 1.61875 2.46375 2.2375 2.1875 2.875 C1 5 1 5 -2 7 C-1.34 4.69 -0.68 2.38 0 0 Z " fill="#373743" transform="translate(357,678)"/>
<path d="M0 0 C2 1 4 2 6 3 C5.34 4.32 4.68 5.64 4 7 C2 5.75 2 5.75 0 4 C0 2.68 0 1.36 0 0 Z " fill="#04A6DB" transform="translate(632,378)"/>
<path d="M0 0 C1.98 0 3.96 0 6 0 C6.33 1.32 6.66 2.64 7 4 C4 5 4 5 1 4 C0.3125 1.9375 0.3125 1.9375 0 0 Z " fill="#03BFF4" transform="translate(532,370)"/>
<path d="M0 0 C0.99 1.32 1.98 2.64 3 4 C1.02 4.99 1.02 4.99 -1 6 C-2.35432675 4.68799596 -3.68733482 3.35368596 -5 2 C-5 1.67 -5 1.34 -5 1 C-3.35 0.67 -1.7 0.34 0 0 Z " fill="#08A7D5" transform="translate(460,318)"/>
<path d="M0 0 C-0.804375 0.556875 -1.60875 1.11375 -2.4375 1.6875 C-5.24228216 4.21864487 -5.69381595 5.32579134 -6 9 C-6.66 8.67 -7.32 8.34 -8 8 C-7.74438677 5.6568787 -7.40729228 3.32156597 -7 1 C-4.53721199 -0.231394 -2.7204945 -0.07159196 0 0 Z " fill="#DFF8FC" transform="translate(689,306)"/>
<path d="M0 0 C2.475 0.99 2.475 0.99 5 2 C4.01 2.99 3.02 3.98 2 5 C1.34 4.67 0.68 4.34 0 4 C-0.99 4.99 -1.98 5.98 -3 7 C-1.125 1.125 -1.125 1.125 0 0 Z " fill="#333341" transform="translate(499,721)"/>
<path d="M0 0 C0.99 0.495 0.99 0.495 2 1 C2 1.66 2 2.32 2 3 C5.3 3.66 8.6 4.32 12 5 C12 5.33 12 5.66 12 6 C6.75394171 7.13664596 6.75394171 7.13664596 4 7 C1.5 4.6875 1.5 4.6875 0 2 C0 1.34 0 0.68 0 0 Z " fill="#3C3D4C" transform="translate(428,706)"/>
<path d="M0 0 C0.99 0 1.98 0 3 0 C3 1.65 3 3.3 3 5 C1.02 5.99 1.02 5.99 -1 7 C-1.625 5.1875 -1.625 5.1875 -2 3 C-1.34 2.01 -0.68 1.02 0 0 Z " fill="#1F1A2B" transform="translate(276,678)"/>
<path d="M0 0 C0.66 0.33 1.32 0.66 2 1 C1.38722388 3.96175123 0.74627478 5.38058783 -1 8 C-1.66 7.67 -2.32 7.34 -3 7 C-3 5.68 -3 4.36 -3 3 C-2.34 3 -1.68 3 -1 3 C-0.67 2.01 -0.34 1.02 0 0 Z " fill="#07C2F8" transform="translate(451,308)"/>
<path d="M0 0 C2.97 0 5.94 0 9 0 C9 0.99 9 1.98 9 3 C6.03 3 3.06 3 0 3 C0 2.01 0 1.02 0 0 Z " fill="#212431" transform="translate(256,716)"/>
<path d="M0 0 C3.7952131 1.49097658 5.61042731 3.75700849 8 7 C5 7 5 7 2.3125 4.625 C0 2 0 2 0 0 Z " fill="#05AEDD" transform="translate(494,337)"/>
<path d="M0 0 C0.99 0.33 1.98 0.66 3 1 C0.69 3.31 -1.62 5.62 -4 8 C-4.66 7.67 -5.32 7.34 -6 7 C-4.02 4.69 -2.04 2.38 0 0 Z " fill="#222432" transform="translate(407,289)"/>
<path d="M0 0 C-0.99 0 -1.98 0 -3 0 C-3.66 1.32 -4.32 2.64 -5 4 C-6.65 3.67 -8.3 3.34 -10 3 C-4.375 -1.3125 -4.375 -1.3125 0 0 Z " fill="#454350" transform="translate(279,678)"/>
<path d="M0 0 C-0.33 0.99 -0.66 1.98 -1 3 C-3.91482778 3.80967438 -5.46113217 4.21845993 -8.3125 3.0625 C-8.869375 2.711875 -9.42625 2.36125 -10 2 C-8.7090864 1.66376204 -7.41723903 1.33110751 -6.125 1 C-5.40570312 0.814375 -4.68640625 0.62875 -3.9453125 0.4375 C-2 0 -2 0 0 0 Z " fill="#717075" transform="translate(795,712)"/>
<path d="M0 0 C3.875 1.75 3.875 1.75 5 4 C2.36 3.67 -0.28 3.34 -3 3 C-2.01 2.01 -1.02 1.02 0 0 Z " fill="#393947" transform="translate(574,707)"/>
<path d="M0 0 C0.33 0 0.66 0 1 0 C1 4.29 1 8.58 1 13 C0.01 12.67 -0.98 12.34 -2 12 C-1.34 8.04 -0.68 4.08 0 0 Z " fill="#E8E8EC" transform="translate(456,563)"/>
<path d="M0 0 C1.32 0.33 2.64 0.66 4 1 C3.67 2.65 3.34 4.3 3 6 C2.01 5.34 1.02 4.68 0 4 C0 2.68 0 1.36 0 0 Z " fill="#04C0F6" transform="translate(525,381)"/>
<path d="M0 0 C3.16115776 1.36983503 3.9927092 1.9890638 6 5 C4.68 5.33 3.36 5.66 2 6 C1.34 4.02 0.68 2.04 0 0 Z " fill="#04A8DC" transform="translate(522,365)"/>
</svg>
